G75*
G70*
%OFA0B0*%
%FSLAX24Y24*%
%IPPOS*%
%LPD*%
%AMOC8*
5,1,8,0,0,1.08239X$1,22.5*
%
%ADD10C,0.0040*%
%ADD11C,0.0000*%
%ADD12C,0.0030*%
%ADD13C,0.0060*%
%ADD14C,0.0020*%
%ADD15C,0.0050*%
%ADD16R,0.0240X0.0340*%
%ADD17C,0.0100*%
%ADD18C,0.0160*%
%ADD19C,0.0080*%
%ADD20C,0.0010*%
%ADD21R,0.0340X0.0240*%
%ADD22R,0.0500X0.0350*%
%ADD23C,0.0070*%
D10*
X016771Y011119D02*
X016771Y011119D01*
X021950Y012547D02*
X021950Y012700D01*
X022026Y012777D01*
X022333Y012470D01*
X022410Y012547D01*
X022410Y012700D01*
X022333Y012777D01*
X022026Y012777D01*
X021950Y012547D02*
X022026Y012470D01*
X022333Y012470D01*
X022410Y013470D02*
X022410Y013777D01*
X022410Y013623D02*
X021950Y013623D01*
X022103Y013470D01*
X022026Y014470D02*
X021950Y014547D01*
X021950Y014700D01*
X022026Y014777D01*
X022103Y014777D01*
X022410Y014470D01*
X022410Y014777D01*
X022333Y015470D02*
X022410Y015547D01*
X022410Y015700D01*
X022333Y015777D01*
X022257Y015777D01*
X022180Y015700D01*
X022180Y015623D01*
X022180Y015700D02*
X022103Y015777D01*
X022026Y015777D01*
X021950Y015700D01*
X021950Y015547D01*
X022026Y015470D01*
X022180Y016470D02*
X022180Y016777D01*
X022410Y016700D02*
X021950Y016700D01*
X022180Y016470D01*
X022180Y017470D02*
X022103Y017623D01*
X022103Y017700D01*
X022180Y017777D01*
X022333Y017777D01*
X022410Y017700D01*
X022410Y017547D01*
X022333Y017470D01*
X022180Y017470D02*
X021950Y017470D01*
X021950Y017777D01*
X022180Y018470D02*
X022180Y018700D01*
X022257Y018777D01*
X022333Y018777D01*
X022410Y018700D01*
X022410Y018547D01*
X022333Y018470D01*
X022180Y018470D01*
X022026Y018623D01*
X021950Y018777D01*
X021950Y019470D02*
X021950Y019777D01*
X022026Y019777D01*
X022333Y019470D01*
X022410Y019470D01*
X022333Y020470D02*
X022257Y020470D01*
X022180Y020547D01*
X022180Y020700D01*
X022257Y020777D01*
X022333Y020777D01*
X022410Y020700D01*
X022410Y020547D01*
X022333Y020470D01*
X022180Y020547D02*
X022103Y020470D01*
X022026Y020470D01*
X021950Y020547D01*
X021950Y020700D01*
X022026Y020777D01*
X022103Y020777D01*
X022180Y020700D01*
X022103Y021470D02*
X022180Y021547D01*
X022180Y021777D01*
X022333Y021777D02*
X022026Y021777D01*
X021950Y021700D01*
X021950Y021547D01*
X022026Y021470D01*
X022103Y021470D01*
X022333Y021470D02*
X022410Y021547D01*
X022410Y021700D01*
X022333Y021777D01*
X022410Y022240D02*
X022410Y022547D01*
X022410Y022393D02*
X021950Y022393D01*
X022103Y022240D01*
X022026Y022700D02*
X021950Y022777D01*
X021950Y022930D01*
X022026Y023007D01*
X022333Y022700D01*
X022410Y022777D01*
X022410Y022930D01*
X022333Y023007D01*
X022026Y023007D01*
X022103Y023240D02*
X021950Y023393D01*
X022410Y023393D01*
X022410Y023240D02*
X022410Y023547D01*
X022410Y023700D02*
X022410Y024007D01*
X022410Y023853D02*
X021950Y023853D01*
X022103Y023700D01*
X022103Y024240D02*
X021950Y024393D01*
X022410Y024393D01*
X022410Y024240D02*
X022410Y024547D01*
X022410Y024700D02*
X022103Y025007D01*
X022026Y025007D01*
X021950Y024930D01*
X021950Y024777D01*
X022026Y024700D01*
X022410Y024700D02*
X022410Y025007D01*
X022410Y025240D02*
X022410Y025547D01*
X022410Y025393D02*
X021950Y025393D01*
X022103Y025240D01*
X022026Y025700D02*
X021950Y025777D01*
X021950Y025930D01*
X022026Y026007D01*
X022103Y026007D01*
X022180Y025930D01*
X022257Y026007D01*
X022333Y026007D01*
X022410Y025930D01*
X022410Y025777D01*
X022333Y025700D01*
X022180Y025853D02*
X022180Y025930D01*
X022103Y026240D02*
X021950Y026393D01*
X022410Y026393D01*
X022410Y026240D02*
X022410Y026547D01*
X022180Y026700D02*
X022180Y027007D01*
X022410Y026930D02*
X021950Y026930D01*
X022180Y026700D01*
X022103Y027240D02*
X021950Y027393D01*
X022410Y027393D01*
X022410Y027240D02*
X022410Y027547D01*
X022333Y027700D02*
X022410Y027777D01*
X022410Y027930D01*
X022333Y028007D01*
X022180Y028007D01*
X022103Y027930D01*
X022103Y027853D01*
X022180Y027700D01*
X021950Y027700D01*
X021950Y028007D01*
X022180Y028970D02*
X022180Y029277D01*
X022410Y029200D02*
X021950Y029200D01*
X022180Y028970D01*
X022333Y029970D02*
X022410Y030047D01*
X022410Y030200D01*
X022333Y030277D01*
X022257Y030277D01*
X022180Y030200D01*
X022180Y030123D01*
X022180Y030200D02*
X022103Y030277D01*
X022026Y030277D01*
X021950Y030200D01*
X021950Y030047D01*
X022026Y029970D01*
X022026Y030970D02*
X021950Y031047D01*
X021950Y031200D01*
X022026Y031277D01*
X022103Y031277D01*
X022410Y030970D01*
X022410Y031277D01*
X022410Y031970D02*
X022410Y032277D01*
X022410Y032123D02*
X021950Y032123D01*
X022103Y031970D01*
X022026Y032970D02*
X021950Y033047D01*
X021950Y033200D01*
X022026Y033277D01*
X022333Y032970D01*
X022410Y033047D01*
X022410Y033200D01*
X022333Y033277D01*
X022026Y033277D01*
X022026Y032970D02*
X022333Y032970D01*
X021833Y035009D02*
X021526Y035009D01*
X021450Y035086D01*
X021450Y035240D01*
X021526Y035316D01*
X021680Y035316D02*
X021680Y035163D01*
X021680Y035316D02*
X021833Y035316D01*
X021910Y035240D01*
X021910Y035086D01*
X021833Y035009D01*
X021910Y035470D02*
X021450Y035470D01*
X021910Y035777D01*
X021450Y035777D01*
X021450Y035930D02*
X021450Y036160D01*
X021526Y036237D01*
X021833Y036237D01*
X021910Y036160D01*
X021910Y035930D01*
X021450Y035930D01*
X021471Y036950D02*
X021394Y037027D01*
X021471Y036950D02*
X021625Y036950D01*
X021701Y037027D01*
X021701Y037103D01*
X021625Y037180D01*
X021548Y037180D01*
X021625Y037180D02*
X021701Y037257D01*
X021701Y037334D01*
X021625Y037410D01*
X021471Y037410D01*
X021394Y037334D01*
X021855Y037027D02*
X021855Y036950D01*
X021931Y036950D01*
X021931Y037027D01*
X021855Y037027D01*
X022085Y037027D02*
X022162Y036950D01*
X022315Y036950D01*
X022392Y037027D01*
X022392Y037103D01*
X022315Y037180D01*
X022238Y037180D01*
X022315Y037180D02*
X022392Y037257D01*
X022392Y037334D01*
X022315Y037410D01*
X022162Y037410D01*
X022085Y037334D01*
X022545Y037410D02*
X022545Y037103D01*
X022699Y036950D01*
X022852Y037103D01*
X022852Y037410D01*
X022660Y037950D02*
X022660Y038410D01*
X022353Y038410D02*
X022660Y037950D01*
X022353Y037950D02*
X022353Y038410D01*
X022200Y038410D02*
X022047Y038410D01*
X022123Y038410D02*
X022123Y037950D01*
X022047Y037950D02*
X022200Y037950D01*
X021893Y038103D02*
X021893Y038410D01*
X021893Y038103D02*
X021740Y037950D01*
X021586Y038103D01*
X021586Y038410D01*
X018732Y038603D02*
X018425Y038603D01*
X018425Y038527D02*
X018425Y038680D01*
X018502Y038757D01*
X018655Y038757D01*
X018732Y038680D01*
X018732Y038603D01*
X018655Y038450D02*
X018502Y038450D01*
X018425Y038527D01*
X018272Y038757D02*
X018195Y038757D01*
X018042Y038603D01*
X018042Y038450D02*
X018042Y038757D01*
X017888Y038680D02*
X017811Y038757D01*
X017658Y038757D01*
X017581Y038680D01*
X017581Y038527D01*
X017658Y038450D01*
X017811Y038450D01*
X017888Y038527D01*
X017888Y038680D01*
X017428Y038527D02*
X017351Y038450D01*
X017198Y038450D01*
X017121Y038527D01*
X017121Y038834D01*
X017198Y038910D01*
X017351Y038910D01*
X017428Y038834D01*
X016507Y038757D02*
X016430Y038757D01*
X016277Y038603D01*
X016277Y038450D02*
X016277Y038757D01*
X016123Y038680D02*
X016047Y038757D01*
X015893Y038757D01*
X015816Y038680D01*
X015816Y038527D01*
X015893Y038450D01*
X016047Y038450D01*
X016123Y038527D01*
X016123Y038680D01*
X015663Y038757D02*
X015433Y038757D01*
X015356Y038680D01*
X015433Y038603D01*
X015586Y038603D01*
X015663Y038527D01*
X015586Y038450D01*
X015356Y038450D01*
X015202Y038450D02*
X015202Y038680D01*
X015126Y038757D01*
X014896Y038757D01*
X014896Y038450D01*
X014742Y038603D02*
X014435Y038603D01*
X014435Y038527D02*
X014435Y038680D01*
X014512Y038757D01*
X014665Y038757D01*
X014742Y038680D01*
X014742Y038603D01*
X014665Y038450D02*
X014512Y038450D01*
X014435Y038527D01*
X014282Y038527D02*
X014205Y038450D01*
X014051Y038450D01*
X013975Y038527D01*
X014051Y038680D02*
X013975Y038757D01*
X013975Y038834D01*
X014051Y038910D01*
X014205Y038910D01*
X014282Y038834D01*
X014205Y038680D02*
X014282Y038603D01*
X014282Y038527D01*
X014205Y038680D02*
X014051Y038680D01*
X013821Y038757D02*
X013821Y038450D01*
X013591Y038450D01*
X013514Y038527D01*
X013514Y038757D01*
X014974Y037910D02*
X014974Y037450D01*
X014974Y037603D02*
X015204Y037603D01*
X015280Y037680D01*
X015280Y037834D01*
X015204Y037910D01*
X014974Y037910D01*
X015127Y037603D02*
X015280Y037450D01*
X015434Y037450D02*
X015741Y037450D01*
X015894Y037603D02*
X016048Y037450D01*
X016201Y037603D01*
X016201Y037910D01*
X015894Y037910D02*
X015894Y037603D01*
X015587Y037680D02*
X015434Y037680D01*
X015434Y037910D02*
X015434Y037450D01*
X015434Y037910D02*
X015741Y037910D01*
X016815Y037757D02*
X016969Y037910D01*
X016969Y037450D01*
X017122Y037450D02*
X016815Y037450D01*
X017275Y037450D02*
X017275Y037527D01*
X017352Y037527D01*
X017352Y037450D01*
X017275Y037450D01*
X017506Y037527D02*
X017813Y037834D01*
X017813Y037527D01*
X017736Y037450D01*
X017582Y037450D01*
X017506Y037527D01*
X017506Y037834D01*
X017582Y037910D01*
X017736Y037910D01*
X017813Y037834D01*
X017966Y037834D02*
X018043Y037910D01*
X018196Y037910D01*
X018273Y037834D01*
X017966Y037527D01*
X018043Y037450D01*
X018196Y037450D01*
X018273Y037527D01*
X018273Y037834D01*
X017966Y037834D02*
X017966Y037527D01*
X014833Y023923D02*
X014910Y023846D01*
X014910Y023616D01*
X014450Y023616D01*
X014450Y023846D01*
X014526Y023923D01*
X014603Y023923D01*
X014680Y023846D01*
X014680Y023616D01*
X014680Y023462D02*
X014680Y023155D01*
X014450Y023386D01*
X014910Y023386D01*
X014833Y023002D02*
X014757Y023002D01*
X014680Y022925D01*
X014680Y022695D01*
X014833Y022695D01*
X014910Y022772D01*
X014910Y022925D01*
X014833Y023002D01*
X014526Y022848D02*
X014680Y022695D01*
X014833Y022542D02*
X014910Y022465D01*
X014910Y022311D01*
X014833Y022235D01*
X014526Y022542D01*
X014833Y022542D01*
X014526Y022542D02*
X014450Y022465D01*
X014450Y022311D01*
X014526Y022235D01*
X014833Y022235D01*
X014680Y021928D02*
X014680Y021774D01*
X014833Y021621D02*
X014910Y021544D01*
X014910Y021391D01*
X014833Y021314D01*
X014526Y021621D01*
X014833Y021621D01*
X014910Y021774D02*
X014450Y021774D01*
X014450Y022081D01*
X014526Y021621D02*
X014450Y021544D01*
X014450Y021391D01*
X014526Y021314D01*
X014833Y021314D01*
X014833Y021160D02*
X014910Y021084D01*
X014910Y020930D01*
X014833Y020853D01*
X014910Y020700D02*
X014910Y020393D01*
X014603Y020700D01*
X014526Y020700D01*
X014450Y020623D01*
X014450Y020470D01*
X014526Y020393D01*
X014450Y020240D02*
X014910Y019933D01*
X014910Y019779D02*
X014450Y019779D01*
X014603Y019626D01*
X014450Y019472D01*
X014910Y019472D01*
X014910Y019319D02*
X014910Y019012D01*
X014603Y019319D01*
X014526Y019319D01*
X014450Y019242D01*
X014450Y019089D01*
X014526Y019012D01*
X014526Y018858D02*
X014603Y018858D01*
X014680Y018782D01*
X014757Y018858D01*
X014833Y018858D01*
X014910Y018782D01*
X014910Y018628D01*
X014833Y018551D01*
X014833Y018398D02*
X014910Y018321D01*
X014910Y018168D01*
X014833Y018091D01*
X014526Y018091D01*
X014450Y018168D01*
X014450Y018321D01*
X014526Y018398D01*
X014526Y018551D02*
X014450Y018628D01*
X014450Y018782D01*
X014526Y018858D01*
X014680Y018782D02*
X014680Y018705D01*
X014910Y017938D02*
X014910Y017784D01*
X014910Y017861D02*
X014450Y017861D01*
X014450Y017784D02*
X014450Y017938D01*
X014526Y017631D02*
X014450Y017554D01*
X014450Y017324D01*
X014910Y017324D01*
X014757Y017324D02*
X014757Y017554D01*
X014680Y017631D01*
X014526Y017631D01*
X014450Y019933D02*
X014910Y020240D01*
X014526Y020853D02*
X014450Y020930D01*
X014450Y021084D01*
X014526Y021160D01*
X014603Y021160D01*
X014680Y021084D01*
X014757Y021160D01*
X014833Y021160D01*
X014680Y021084D02*
X014680Y021007D01*
X014526Y022848D02*
X014450Y023002D01*
X014680Y023846D02*
X014757Y023923D01*
X014833Y023923D01*
X022026Y022700D02*
X022333Y022700D01*
D11*
X016370Y022880D02*
X016370Y022480D01*
X016150Y022480D01*
X016150Y022880D01*
X016370Y022880D01*
X016370Y023480D02*
X016370Y023880D01*
X016150Y023880D01*
X016150Y023480D01*
X016370Y023480D01*
X016370Y024480D02*
X016370Y024880D01*
X016150Y024880D01*
X016150Y024480D01*
X016370Y024480D01*
X016370Y025480D02*
X016370Y025880D01*
X016150Y025880D01*
X016150Y025480D01*
X016370Y025480D01*
X016370Y026480D02*
X016370Y026880D01*
X016150Y026880D01*
X016150Y026480D01*
X016370Y026480D01*
X016370Y027480D02*
X016370Y027880D01*
X016150Y027880D01*
X016150Y027480D01*
X016370Y027480D01*
X016370Y028480D02*
X016370Y028880D01*
X016150Y028880D01*
X016150Y028480D01*
X016370Y028480D01*
X016370Y029480D02*
X016370Y029880D01*
X016150Y029880D01*
X016150Y029480D01*
X016370Y029480D01*
X016370Y030480D02*
X016370Y030880D01*
X016150Y030880D01*
X016150Y030480D01*
X016370Y030480D01*
X016160Y031180D02*
X014800Y031180D01*
X014560Y031180D01*
X013200Y031180D01*
X013200Y017180D01*
X016160Y017180D01*
X016160Y031180D01*
X014800Y031180D02*
X014798Y031159D01*
X014793Y031139D01*
X014784Y031120D01*
X014772Y031103D01*
X014757Y031088D01*
X014740Y031076D01*
X014721Y031067D01*
X014701Y031062D01*
X014680Y031060D01*
X014659Y031062D01*
X014639Y031067D01*
X014620Y031076D01*
X014603Y031088D01*
X014588Y031103D01*
X014576Y031120D01*
X014567Y031139D01*
X014562Y031159D01*
X014560Y031180D01*
X013200Y030880D02*
X013200Y030480D01*
X012980Y030480D01*
X012980Y030880D01*
X013200Y030880D01*
X013200Y029880D02*
X012980Y029880D01*
X012980Y029480D01*
X013200Y029480D01*
X013200Y029880D01*
X013200Y028880D02*
X012980Y028880D01*
X012980Y028480D01*
X013200Y028480D01*
X013200Y028880D01*
X013200Y027880D02*
X012980Y027880D01*
X012980Y027480D01*
X013200Y027480D01*
X013200Y027880D01*
X013200Y026880D02*
X012980Y026880D01*
X012980Y026480D01*
X013200Y026480D01*
X013200Y026880D01*
X013200Y025880D02*
X012980Y025880D01*
X012980Y025480D01*
X013200Y025480D01*
X013200Y025880D01*
X013200Y024880D02*
X012980Y024880D01*
X012980Y024480D01*
X013200Y024480D01*
X013200Y024880D01*
X013200Y023880D02*
X012980Y023880D01*
X012980Y023480D01*
X013200Y023480D01*
X013200Y023880D01*
X013200Y022880D02*
X012980Y022880D01*
X012990Y022480D01*
X013210Y022480D01*
X013200Y022880D01*
X013210Y021880D02*
X012990Y021880D01*
X012990Y021480D01*
X013210Y021480D01*
X013210Y021880D01*
X013210Y020880D02*
X012990Y020880D01*
X012990Y020480D01*
X013210Y020480D01*
X013210Y020880D01*
X013210Y019880D02*
X012990Y019880D01*
X012990Y019480D01*
X013210Y019480D01*
X013210Y019880D01*
X013210Y018880D02*
X012990Y018880D01*
X012990Y018480D01*
X013210Y018480D01*
X013210Y018880D01*
X013210Y017880D02*
X012990Y017870D01*
X012990Y017480D01*
X013210Y017480D01*
X013210Y017880D01*
X016150Y017880D02*
X016160Y017480D01*
X016380Y017480D01*
X016370Y017880D01*
X016150Y017880D01*
X016160Y018480D02*
X016380Y018480D01*
X016370Y018880D01*
X016150Y018880D01*
X016160Y018480D01*
X016150Y019480D02*
X016370Y019480D01*
X016370Y019880D01*
X016150Y019880D01*
X016150Y019480D01*
X016150Y020480D02*
X016370Y020480D01*
X016370Y020880D01*
X016150Y020880D01*
X016150Y020480D01*
X016150Y021480D02*
X016370Y021480D01*
X016370Y021880D01*
X016150Y021880D01*
X016150Y021480D01*
D12*
X016107Y023945D02*
X015794Y023945D01*
X016107Y024259D01*
X016107Y024337D01*
X016029Y024415D01*
X015872Y024415D01*
X015794Y024337D01*
X015647Y024259D02*
X015412Y024259D01*
X015333Y024180D01*
X015412Y024102D01*
X015569Y024102D01*
X015647Y024023D01*
X015569Y023945D01*
X015333Y023945D01*
X015187Y024102D02*
X014873Y024102D01*
X014873Y024180D02*
X014952Y024259D01*
X015108Y024259D01*
X015187Y024180D01*
X015187Y024102D01*
X015108Y023945D02*
X014952Y023945D01*
X014873Y024023D01*
X014873Y024180D01*
X014726Y024023D02*
X014726Y024337D01*
X014648Y024415D01*
X014413Y024415D01*
X014413Y023945D01*
X014648Y023945D01*
X014726Y024023D01*
X014263Y024180D02*
X014106Y024180D01*
X013959Y024180D02*
X013881Y024259D01*
X013724Y024259D01*
X013645Y024180D01*
X013645Y024023D01*
X013724Y023945D01*
X013881Y023945D01*
X013959Y024102D02*
X013645Y024102D01*
X013499Y024180D02*
X013499Y024337D01*
X013420Y024415D01*
X013185Y024415D01*
X013185Y023945D01*
X013185Y024102D02*
X013420Y024102D01*
X013499Y024180D01*
X013342Y024102D02*
X013499Y023945D01*
X013959Y024102D02*
X013959Y024180D01*
X014184Y024337D02*
X014263Y024415D01*
X014184Y024337D02*
X014184Y023945D01*
X013279Y031113D02*
X012965Y031427D01*
X012965Y031270D02*
X013279Y031270D01*
X013279Y031427D02*
X012965Y031113D01*
X013122Y031113D02*
X013122Y031427D01*
D13*
X007430Y011680D02*
X006930Y011680D01*
X006680Y011930D01*
X006680Y012430D01*
X006930Y012680D01*
X007430Y012680D01*
X007680Y012430D01*
X007930Y012680D01*
X008430Y012680D01*
X008680Y012430D01*
X008680Y011930D01*
X008430Y011680D01*
X007930Y011680D01*
X007680Y011930D01*
X007430Y011680D01*
X007680Y011930D02*
X007680Y012430D01*
X008680Y012430D02*
X008930Y012680D01*
X009430Y012680D01*
X009680Y012430D01*
X009930Y012680D01*
X010430Y012680D01*
X010680Y012430D01*
X010930Y012680D01*
X011430Y012680D01*
X011680Y012430D01*
X011930Y012680D01*
X012430Y012680D01*
X012680Y012430D01*
X012680Y011930D01*
X012430Y011680D01*
X011930Y011680D01*
X011680Y011930D01*
X011430Y011680D01*
X010930Y011680D01*
X010680Y011930D01*
X010430Y011680D01*
X009930Y011680D01*
X009680Y011930D01*
X009430Y011680D01*
X008930Y011680D01*
X008680Y011930D01*
X009680Y011930D02*
X009680Y012430D01*
X010680Y012430D02*
X010680Y011930D01*
X011680Y011930D02*
X011680Y012430D01*
X011830Y016430D02*
X012530Y016430D01*
X012547Y016432D01*
X012564Y016436D01*
X012580Y016443D01*
X012594Y016453D01*
X012607Y016466D01*
X012617Y016480D01*
X012624Y016496D01*
X012628Y016513D01*
X012630Y016530D01*
X012630Y016680D01*
X012580Y016730D01*
X012580Y018630D01*
X012630Y018680D01*
X012630Y018830D01*
X012628Y018847D01*
X012624Y018864D01*
X012617Y018880D01*
X012607Y018894D01*
X012594Y018907D01*
X012580Y018917D01*
X012564Y018924D01*
X012547Y018928D01*
X012530Y018930D01*
X011830Y018930D01*
X011813Y018928D01*
X011796Y018924D01*
X011780Y018917D01*
X011766Y018907D01*
X011753Y018894D01*
X011743Y018880D01*
X011736Y018864D01*
X011732Y018847D01*
X011730Y018830D01*
X011730Y018680D01*
X011780Y018630D01*
X011780Y016730D01*
X011730Y016680D01*
X011730Y016530D01*
X011732Y016513D01*
X011736Y016496D01*
X011743Y016480D01*
X011753Y016466D01*
X011766Y016453D01*
X011780Y016443D01*
X011796Y016436D01*
X011813Y016432D01*
X011830Y016430D01*
X010380Y017330D02*
X010380Y017680D01*
X010380Y018680D01*
X010380Y019030D01*
X009580Y019380D02*
X009480Y019380D01*
X009480Y019480D01*
X008880Y019480D01*
X008880Y019380D01*
X008780Y019380D01*
X007980Y019030D02*
X007980Y018680D01*
X007980Y017730D01*
X007980Y017330D01*
X008780Y016980D02*
X008880Y016980D01*
X008880Y016880D01*
X009480Y016880D01*
X009480Y016980D01*
X009580Y016980D01*
X009080Y018180D02*
X009082Y018200D01*
X009088Y018218D01*
X009097Y018236D01*
X009109Y018251D01*
X009124Y018263D01*
X009142Y018272D01*
X009160Y018278D01*
X009180Y018280D01*
X009200Y018278D01*
X009218Y018272D01*
X009236Y018263D01*
X009251Y018251D01*
X009263Y018236D01*
X009272Y018218D01*
X009278Y018200D01*
X009280Y018180D01*
X009278Y018160D01*
X009272Y018142D01*
X009263Y018124D01*
X009251Y018109D01*
X009236Y018097D01*
X009218Y018088D01*
X009200Y018082D01*
X009180Y018080D01*
X009160Y018082D01*
X009142Y018088D01*
X009124Y018097D01*
X009109Y018109D01*
X009097Y018124D01*
X009088Y018142D01*
X009082Y018160D01*
X009080Y018180D01*
X008480Y018180D02*
X008482Y018232D01*
X008488Y018284D01*
X008498Y018336D01*
X008511Y018386D01*
X008528Y018436D01*
X008549Y018484D01*
X008574Y018530D01*
X008602Y018574D01*
X008633Y018616D01*
X008667Y018656D01*
X008704Y018693D01*
X008744Y018727D01*
X008786Y018758D01*
X008830Y018786D01*
X008876Y018811D01*
X008924Y018832D01*
X008974Y018849D01*
X009024Y018862D01*
X009076Y018872D01*
X009128Y018878D01*
X009180Y018880D01*
X009232Y018878D01*
X009284Y018872D01*
X009336Y018862D01*
X009386Y018849D01*
X009436Y018832D01*
X009484Y018811D01*
X009530Y018786D01*
X009574Y018758D01*
X009616Y018727D01*
X009656Y018693D01*
X009693Y018656D01*
X009727Y018616D01*
X009758Y018574D01*
X009786Y018530D01*
X009811Y018484D01*
X009832Y018436D01*
X009849Y018386D01*
X009862Y018336D01*
X009872Y018284D01*
X009878Y018232D01*
X009880Y018180D01*
X009878Y018128D01*
X009872Y018076D01*
X009862Y018024D01*
X009849Y017974D01*
X009832Y017924D01*
X009811Y017876D01*
X009786Y017830D01*
X009758Y017786D01*
X009727Y017744D01*
X009693Y017704D01*
X009656Y017667D01*
X009616Y017633D01*
X009574Y017602D01*
X009530Y017574D01*
X009484Y017549D01*
X009436Y017528D01*
X009386Y017511D01*
X009336Y017498D01*
X009284Y017488D01*
X009232Y017482D01*
X009180Y017480D01*
X009128Y017482D01*
X009076Y017488D01*
X009024Y017498D01*
X008974Y017511D01*
X008924Y017528D01*
X008876Y017549D01*
X008830Y017574D01*
X008786Y017602D01*
X008744Y017633D01*
X008704Y017667D01*
X008667Y017704D01*
X008633Y017744D01*
X008602Y017786D01*
X008574Y017830D01*
X008549Y017876D01*
X008528Y017924D01*
X008511Y017974D01*
X008498Y018024D01*
X008488Y018076D01*
X008482Y018128D01*
X008480Y018180D01*
X006880Y017680D02*
X006880Y018680D01*
X006880Y019030D01*
X006080Y019380D02*
X005980Y019380D01*
X005980Y019480D01*
X005380Y019480D01*
X005380Y019380D01*
X005280Y019380D01*
X004480Y019030D02*
X004480Y018680D01*
X004480Y017730D01*
X004480Y017330D01*
X005280Y016980D02*
X005380Y016980D01*
X005380Y016880D01*
X005980Y016880D01*
X005980Y016980D01*
X006080Y016980D01*
X006880Y017330D02*
X006880Y017680D01*
X005580Y018180D02*
X005582Y018200D01*
X005588Y018218D01*
X005597Y018236D01*
X005609Y018251D01*
X005624Y018263D01*
X005642Y018272D01*
X005660Y018278D01*
X005680Y018280D01*
X005700Y018278D01*
X005718Y018272D01*
X005736Y018263D01*
X005751Y018251D01*
X005763Y018236D01*
X005772Y018218D01*
X005778Y018200D01*
X005780Y018180D01*
X005778Y018160D01*
X005772Y018142D01*
X005763Y018124D01*
X005751Y018109D01*
X005736Y018097D01*
X005718Y018088D01*
X005700Y018082D01*
X005680Y018080D01*
X005660Y018082D01*
X005642Y018088D01*
X005624Y018097D01*
X005609Y018109D01*
X005597Y018124D01*
X005588Y018142D01*
X005582Y018160D01*
X005580Y018180D01*
X004980Y018180D02*
X004982Y018232D01*
X004988Y018284D01*
X004998Y018336D01*
X005011Y018386D01*
X005028Y018436D01*
X005049Y018484D01*
X005074Y018530D01*
X005102Y018574D01*
X005133Y018616D01*
X005167Y018656D01*
X005204Y018693D01*
X005244Y018727D01*
X005286Y018758D01*
X005330Y018786D01*
X005376Y018811D01*
X005424Y018832D01*
X005474Y018849D01*
X005524Y018862D01*
X005576Y018872D01*
X005628Y018878D01*
X005680Y018880D01*
X005732Y018878D01*
X005784Y018872D01*
X005836Y018862D01*
X005886Y018849D01*
X005936Y018832D01*
X005984Y018811D01*
X006030Y018786D01*
X006074Y018758D01*
X006116Y018727D01*
X006156Y018693D01*
X006193Y018656D01*
X006227Y018616D01*
X006258Y018574D01*
X006286Y018530D01*
X006311Y018484D01*
X006332Y018436D01*
X006349Y018386D01*
X006362Y018336D01*
X006372Y018284D01*
X006378Y018232D01*
X006380Y018180D01*
X006378Y018128D01*
X006372Y018076D01*
X006362Y018024D01*
X006349Y017974D01*
X006332Y017924D01*
X006311Y017876D01*
X006286Y017830D01*
X006258Y017786D01*
X006227Y017744D01*
X006193Y017704D01*
X006156Y017667D01*
X006116Y017633D01*
X006074Y017602D01*
X006030Y017574D01*
X005984Y017549D01*
X005936Y017528D01*
X005886Y017511D01*
X005836Y017498D01*
X005784Y017488D01*
X005732Y017482D01*
X005680Y017480D01*
X005628Y017482D01*
X005576Y017488D01*
X005524Y017498D01*
X005474Y017511D01*
X005424Y017528D01*
X005376Y017549D01*
X005330Y017574D01*
X005286Y017602D01*
X005244Y017633D01*
X005204Y017667D01*
X005167Y017704D01*
X005133Y017744D01*
X005102Y017786D01*
X005074Y017830D01*
X005049Y017876D01*
X005028Y017924D01*
X005011Y017974D01*
X004998Y018024D01*
X004988Y018076D01*
X004982Y018128D01*
X004980Y018180D01*
X004130Y018680D02*
X004130Y018830D01*
X004128Y018847D01*
X004124Y018864D01*
X004117Y018880D01*
X004107Y018894D01*
X004094Y018907D01*
X004080Y018917D01*
X004064Y018924D01*
X004047Y018928D01*
X004030Y018930D01*
X003330Y018930D01*
X003313Y018928D01*
X003296Y018924D01*
X003280Y018917D01*
X003266Y018907D01*
X003253Y018894D01*
X003243Y018880D01*
X003236Y018864D01*
X003232Y018847D01*
X003230Y018830D01*
X003230Y018680D01*
X003280Y018630D01*
X003280Y016730D01*
X003230Y016680D01*
X003230Y016530D01*
X003232Y016513D01*
X003236Y016496D01*
X003243Y016480D01*
X003253Y016466D01*
X003266Y016453D01*
X003280Y016443D01*
X003296Y016436D01*
X003313Y016432D01*
X003330Y016430D01*
X004030Y016430D01*
X004047Y016432D01*
X004064Y016436D01*
X004080Y016443D01*
X004094Y016453D01*
X004107Y016466D01*
X004117Y016480D01*
X004124Y016496D01*
X004128Y016513D01*
X004130Y016530D01*
X004130Y016680D01*
X004080Y016730D01*
X004080Y018630D01*
X004130Y018680D01*
X007480Y022030D02*
X007480Y024330D01*
X007482Y024381D01*
X007487Y024432D01*
X007497Y024482D01*
X007510Y024532D01*
X007526Y024580D01*
X007546Y024627D01*
X007570Y024673D01*
X007596Y024716D01*
X007626Y024758D01*
X007659Y024797D01*
X007694Y024834D01*
X007732Y024868D01*
X007773Y024899D01*
X007815Y024928D01*
X007860Y024953D01*
X007906Y024974D01*
X007954Y024993D01*
X008003Y025007D01*
X008053Y025018D01*
X008103Y025026D01*
X008154Y025030D01*
X008206Y025030D01*
X008257Y025026D01*
X008307Y025018D01*
X008357Y025007D01*
X008406Y024993D01*
X008454Y024974D01*
X008500Y024953D01*
X008545Y024928D01*
X008587Y024899D01*
X008628Y024868D01*
X008666Y024834D01*
X008701Y024797D01*
X008734Y024758D01*
X008764Y024716D01*
X008790Y024673D01*
X008814Y024627D01*
X008834Y024580D01*
X008850Y024532D01*
X008863Y024482D01*
X008873Y024432D01*
X008878Y024381D01*
X008880Y024330D01*
X008880Y022030D01*
X008878Y021979D01*
X008873Y021928D01*
X008863Y021878D01*
X008850Y021828D01*
X008834Y021780D01*
X008814Y021733D01*
X008790Y021687D01*
X008764Y021644D01*
X008734Y021602D01*
X008701Y021563D01*
X008666Y021526D01*
X008628Y021492D01*
X008587Y021461D01*
X008545Y021432D01*
X008500Y021407D01*
X008454Y021386D01*
X008406Y021367D01*
X008357Y021353D01*
X008307Y021342D01*
X008257Y021334D01*
X008206Y021330D01*
X008154Y021330D01*
X008103Y021334D01*
X008053Y021342D01*
X008003Y021353D01*
X007954Y021367D01*
X007906Y021386D01*
X007860Y021407D01*
X007815Y021432D01*
X007773Y021461D01*
X007732Y021492D01*
X007694Y021526D01*
X007659Y021563D01*
X007626Y021602D01*
X007596Y021644D01*
X007570Y021687D01*
X007546Y021733D01*
X007526Y021780D01*
X007510Y021828D01*
X007497Y021878D01*
X007487Y021928D01*
X007482Y021979D01*
X007480Y022030D01*
X008180Y022680D02*
X008180Y022930D01*
X008530Y022930D01*
X008530Y023080D02*
X007830Y023080D01*
X007830Y023280D01*
X008530Y023280D01*
X008530Y023080D01*
X008530Y023430D02*
X008180Y023430D01*
X008180Y023680D01*
X008180Y023430D02*
X007830Y023430D01*
X007830Y022930D02*
X008180Y022930D01*
X010680Y023030D02*
X010680Y021330D01*
X010682Y021313D01*
X010686Y021296D01*
X010693Y021280D01*
X010703Y021266D01*
X010716Y021253D01*
X010730Y021243D01*
X010746Y021236D01*
X010763Y021232D01*
X010780Y021230D01*
X011580Y021230D01*
X011597Y021232D01*
X011614Y021236D01*
X011630Y021243D01*
X011644Y021253D01*
X011657Y021266D01*
X011667Y021280D01*
X011674Y021296D01*
X011678Y021313D01*
X011680Y021330D01*
X011680Y023030D01*
X011678Y023047D01*
X011674Y023064D01*
X011667Y023080D01*
X011657Y023094D01*
X011644Y023107D01*
X011630Y023117D01*
X011614Y023124D01*
X011597Y023128D01*
X011580Y023130D01*
X010780Y023130D01*
X010763Y023128D01*
X010746Y023124D01*
X010730Y023117D01*
X010716Y023107D01*
X010703Y023094D01*
X010693Y023080D01*
X010686Y023064D01*
X010682Y023047D01*
X010680Y023030D01*
X011180Y022330D02*
X011180Y022280D01*
X011180Y022080D02*
X011180Y022030D01*
X010780Y023730D02*
X011580Y023730D01*
X011597Y023732D01*
X011614Y023736D01*
X011630Y023743D01*
X011644Y023753D01*
X011657Y023766D01*
X011667Y023780D01*
X011674Y023796D01*
X011678Y023813D01*
X011680Y023830D01*
X011680Y025530D01*
X011678Y025547D01*
X011674Y025564D01*
X011667Y025580D01*
X011657Y025594D01*
X011644Y025607D01*
X011630Y025617D01*
X011614Y025624D01*
X011597Y025628D01*
X011580Y025630D01*
X010780Y025630D01*
X010763Y025628D01*
X010746Y025624D01*
X010730Y025617D01*
X010716Y025607D01*
X010703Y025594D01*
X010693Y025580D01*
X010686Y025564D01*
X010682Y025547D01*
X010680Y025530D01*
X010680Y023830D01*
X010682Y023813D01*
X010686Y023796D01*
X010693Y023780D01*
X010703Y023766D01*
X010716Y023753D01*
X010730Y023743D01*
X010746Y023736D01*
X010763Y023732D01*
X010780Y023730D01*
X011180Y024530D02*
X011180Y024580D01*
X011180Y024780D02*
X011180Y024830D01*
X009580Y028730D02*
X008780Y028730D01*
X008763Y028732D01*
X008746Y028736D01*
X008730Y028743D01*
X008716Y028753D01*
X008703Y028766D01*
X008693Y028780D01*
X008686Y028796D01*
X008682Y028813D01*
X008680Y028830D01*
X008680Y030530D01*
X008682Y030547D01*
X008686Y030564D01*
X008693Y030580D01*
X008703Y030594D01*
X008716Y030607D01*
X008730Y030617D01*
X008746Y030624D01*
X008763Y030628D01*
X008780Y030630D01*
X009580Y030630D01*
X009597Y030628D01*
X009614Y030624D01*
X009630Y030617D01*
X009644Y030607D01*
X009657Y030594D01*
X009667Y030580D01*
X009674Y030564D01*
X009678Y030547D01*
X009680Y030530D01*
X009680Y028830D01*
X009678Y028813D01*
X009674Y028796D01*
X009667Y028780D01*
X009657Y028766D01*
X009644Y028753D01*
X009630Y028743D01*
X009614Y028736D01*
X009597Y028732D01*
X009580Y028730D01*
X009180Y029530D02*
X009180Y029580D01*
X009180Y029780D02*
X009180Y029830D01*
X006930Y031830D02*
X006930Y032530D01*
X006928Y032547D01*
X006924Y032564D01*
X006917Y032580D01*
X006907Y032594D01*
X006894Y032607D01*
X006880Y032617D01*
X006864Y032624D01*
X006847Y032628D01*
X006830Y032630D01*
X006680Y032630D01*
X006630Y032580D01*
X004730Y032580D01*
X004680Y032630D01*
X004530Y032630D01*
X004513Y032628D01*
X004496Y032624D01*
X004480Y032617D01*
X004466Y032607D01*
X004453Y032594D01*
X004443Y032580D01*
X004436Y032564D01*
X004432Y032547D01*
X004430Y032530D01*
X004430Y031830D01*
X004432Y031813D01*
X004436Y031796D01*
X004443Y031780D01*
X004453Y031766D01*
X004466Y031753D01*
X004480Y031743D01*
X004496Y031736D01*
X004513Y031732D01*
X004530Y031730D01*
X004680Y031730D01*
X004730Y031780D01*
X006630Y031780D01*
X006680Y031730D01*
X006830Y031730D01*
X006847Y031732D01*
X006864Y031736D01*
X006880Y031743D01*
X006894Y031753D01*
X006907Y031766D01*
X006917Y031780D01*
X006924Y031796D01*
X006928Y031813D01*
X006930Y031830D01*
X008630Y032680D02*
X008630Y037580D01*
X008980Y037580D01*
X008980Y038180D01*
X008630Y038180D01*
X008630Y038930D01*
X012730Y038930D01*
X012730Y038180D01*
X012380Y038180D01*
X012380Y037580D01*
X012730Y037580D01*
X012730Y032680D01*
X008630Y032680D01*
X005180Y029680D02*
X005182Y029743D01*
X005188Y029805D01*
X005198Y029867D01*
X005211Y029929D01*
X005229Y029989D01*
X005250Y030048D01*
X005275Y030106D01*
X005304Y030162D01*
X005336Y030216D01*
X005371Y030268D01*
X005409Y030317D01*
X005451Y030365D01*
X005495Y030409D01*
X005543Y030451D01*
X005592Y030489D01*
X005644Y030524D01*
X005698Y030556D01*
X005754Y030585D01*
X005812Y030610D01*
X005871Y030631D01*
X005931Y030649D01*
X005993Y030662D01*
X006055Y030672D01*
X006117Y030678D01*
X006180Y030680D01*
X006243Y030678D01*
X006305Y030672D01*
X006367Y030662D01*
X006429Y030649D01*
X006489Y030631D01*
X006548Y030610D01*
X006606Y030585D01*
X006662Y030556D01*
X006716Y030524D01*
X006768Y030489D01*
X006817Y030451D01*
X006865Y030409D01*
X006909Y030365D01*
X006951Y030317D01*
X006989Y030268D01*
X007024Y030216D01*
X007056Y030162D01*
X007085Y030106D01*
X007110Y030048D01*
X007131Y029989D01*
X007149Y029929D01*
X007162Y029867D01*
X007172Y029805D01*
X007178Y029743D01*
X007180Y029680D01*
X007178Y029617D01*
X007172Y029555D01*
X007162Y029493D01*
X007149Y029431D01*
X007131Y029371D01*
X007110Y029312D01*
X007085Y029254D01*
X007056Y029198D01*
X007024Y029144D01*
X006989Y029092D01*
X006951Y029043D01*
X006909Y028995D01*
X006865Y028951D01*
X006817Y028909D01*
X006768Y028871D01*
X006716Y028836D01*
X006662Y028804D01*
X006606Y028775D01*
X006548Y028750D01*
X006489Y028729D01*
X006429Y028711D01*
X006367Y028698D01*
X006305Y028688D01*
X006243Y028682D01*
X006180Y028680D01*
X006117Y028682D01*
X006055Y028688D01*
X005993Y028698D01*
X005931Y028711D01*
X005871Y028729D01*
X005812Y028750D01*
X005754Y028775D01*
X005698Y028804D01*
X005644Y028836D01*
X005592Y028871D01*
X005543Y028909D01*
X005495Y028951D01*
X005451Y028995D01*
X005409Y029043D01*
X005371Y029092D01*
X005336Y029144D01*
X005304Y029198D01*
X005275Y029254D01*
X005250Y029312D01*
X005229Y029371D01*
X005211Y029431D01*
X005198Y029493D01*
X005188Y029555D01*
X005182Y029617D01*
X005180Y029680D01*
X009970Y037580D02*
X009972Y037633D01*
X009978Y037686D01*
X009988Y037738D01*
X010002Y037789D01*
X010019Y037839D01*
X010040Y037888D01*
X010065Y037935D01*
X010093Y037980D01*
X010125Y038023D01*
X010160Y038063D01*
X010197Y038100D01*
X010237Y038135D01*
X010280Y038167D01*
X010325Y038195D01*
X010372Y038220D01*
X010421Y038241D01*
X010471Y038258D01*
X010522Y038272D01*
X010574Y038282D01*
X010627Y038288D01*
X010680Y038290D01*
X010733Y038288D01*
X010786Y038282D01*
X010838Y038272D01*
X010889Y038258D01*
X010939Y038241D01*
X010988Y038220D01*
X011035Y038195D01*
X011080Y038167D01*
X011123Y038135D01*
X011163Y038100D01*
X011200Y038063D01*
X011235Y038023D01*
X011267Y037980D01*
X011295Y037935D01*
X011320Y037888D01*
X011341Y037839D01*
X011358Y037789D01*
X011372Y037738D01*
X011382Y037686D01*
X011388Y037633D01*
X011390Y037580D01*
X011388Y037527D01*
X011382Y037474D01*
X011372Y037422D01*
X011358Y037371D01*
X011341Y037321D01*
X011320Y037272D01*
X011295Y037225D01*
X011267Y037180D01*
X011235Y037137D01*
X011200Y037097D01*
X011163Y037060D01*
X011123Y037025D01*
X011080Y036993D01*
X011035Y036965D01*
X010988Y036940D01*
X010939Y036919D01*
X010889Y036902D01*
X010838Y036888D01*
X010786Y036878D01*
X010733Y036872D01*
X010680Y036870D01*
X010627Y036872D01*
X010574Y036878D01*
X010522Y036888D01*
X010471Y036902D01*
X010421Y036919D01*
X010372Y036940D01*
X010325Y036965D01*
X010280Y036993D01*
X010237Y037025D01*
X010197Y037060D01*
X010160Y037097D01*
X010125Y037137D01*
X010093Y037180D01*
X010065Y037225D01*
X010040Y037272D01*
X010019Y037321D01*
X010002Y037371D01*
X009988Y037422D01*
X009978Y037474D01*
X009972Y037527D01*
X009970Y037580D01*
X014230Y036330D02*
X014230Y036180D01*
X014280Y036130D01*
X014280Y034230D01*
X014230Y034180D01*
X014230Y034030D01*
X014232Y034013D01*
X014236Y033996D01*
X014243Y033980D01*
X014253Y033966D01*
X014266Y033953D01*
X014280Y033943D01*
X014296Y033936D01*
X014313Y033932D01*
X014330Y033930D01*
X015030Y033930D01*
X015047Y033932D01*
X015064Y033936D01*
X015080Y033943D01*
X015094Y033953D01*
X015107Y033966D01*
X015117Y033980D01*
X015124Y033996D01*
X015128Y034013D01*
X015130Y034030D01*
X015130Y034180D01*
X015080Y034230D01*
X015080Y036130D01*
X015130Y036180D01*
X015130Y036330D01*
X015128Y036347D01*
X015124Y036364D01*
X015117Y036380D01*
X015107Y036394D01*
X015094Y036407D01*
X015080Y036417D01*
X015064Y036424D01*
X015047Y036428D01*
X015030Y036430D01*
X014330Y036430D01*
X014313Y036428D01*
X014296Y036424D01*
X014280Y036417D01*
X014266Y036407D01*
X014253Y036394D01*
X014243Y036380D01*
X014236Y036364D01*
X014232Y036347D01*
X014230Y036330D01*
X019180Y036430D02*
X019180Y035930D01*
X019430Y035680D01*
X019180Y035430D01*
X019180Y034930D01*
X019430Y034680D01*
X020930Y034680D01*
X021180Y034930D01*
X021180Y035430D01*
X020930Y035680D01*
X019430Y035680D01*
X019180Y036430D02*
X019430Y036680D01*
X020930Y036680D01*
X021180Y036430D01*
X021180Y035930D01*
X020930Y035680D01*
X020930Y036680D02*
X021180Y036930D01*
X021180Y037430D01*
X020930Y037680D01*
X019430Y037680D01*
X019180Y037430D01*
X019180Y036930D01*
X019430Y036680D01*
X019430Y037680D02*
X019180Y037930D01*
X019180Y038430D01*
X019430Y038680D01*
X020930Y038680D01*
X021180Y038430D01*
X021180Y037930D01*
X020930Y037680D01*
X018580Y031130D02*
X017780Y031130D01*
X017763Y031128D01*
X017746Y031124D01*
X017730Y031117D01*
X017716Y031107D01*
X017703Y031094D01*
X017693Y031080D01*
X017686Y031064D01*
X017682Y031047D01*
X017680Y031030D01*
X017680Y029330D01*
X017682Y029313D01*
X017686Y029296D01*
X017693Y029280D01*
X017703Y029266D01*
X017716Y029253D01*
X017730Y029243D01*
X017746Y029236D01*
X017763Y029232D01*
X017780Y029230D01*
X018580Y029230D01*
X018597Y029232D01*
X018614Y029236D01*
X018630Y029243D01*
X018644Y029253D01*
X018657Y029266D01*
X018667Y029280D01*
X018674Y029296D01*
X018678Y029313D01*
X018680Y029330D01*
X018680Y031030D01*
X018678Y031047D01*
X018674Y031064D01*
X018667Y031080D01*
X018657Y031094D01*
X018644Y031107D01*
X018630Y031117D01*
X018614Y031124D01*
X018597Y031128D01*
X018580Y031130D01*
X018180Y030330D02*
X018180Y030280D01*
X018180Y030080D02*
X018180Y030030D01*
X017330Y023180D02*
X019030Y023180D01*
X019047Y023178D01*
X019064Y023174D01*
X019080Y023167D01*
X019094Y023157D01*
X019107Y023144D01*
X019117Y023130D01*
X019124Y023114D01*
X019128Y023097D01*
X019130Y023080D01*
X019130Y022280D01*
X019128Y022263D01*
X019124Y022246D01*
X019117Y022230D01*
X019107Y022216D01*
X019094Y022203D01*
X019080Y022193D01*
X019064Y022186D01*
X019047Y022182D01*
X019030Y022180D01*
X017330Y022180D01*
X017313Y022182D01*
X017296Y022186D01*
X017280Y022193D01*
X017266Y022203D01*
X017253Y022216D01*
X017243Y022230D01*
X017236Y022246D01*
X017232Y022263D01*
X017230Y022280D01*
X017230Y023080D01*
X017232Y023097D01*
X017236Y023114D01*
X017243Y023130D01*
X017253Y023144D01*
X017266Y023157D01*
X017280Y023167D01*
X017296Y023174D01*
X017313Y023178D01*
X017330Y023180D01*
X018030Y022680D02*
X018080Y022680D01*
X018280Y022680D02*
X018330Y022680D01*
D14*
X010380Y018680D02*
X010280Y018680D01*
X010280Y017680D01*
X010380Y017680D01*
X008080Y017730D02*
X007980Y017730D01*
X008080Y017730D02*
X008080Y018680D01*
X007980Y018680D01*
X006880Y018680D02*
X006780Y018680D01*
X006780Y017680D01*
X006880Y017680D01*
X004580Y017730D02*
X004480Y017730D01*
X004580Y017730D02*
X004580Y018680D01*
X004480Y018680D01*
X008880Y032930D02*
X008880Y036180D01*
X012480Y036180D01*
X012480Y032930D01*
X008880Y032930D01*
D15*
X006435Y032405D02*
X006435Y032330D01*
X006135Y032030D01*
X006135Y031955D01*
X005899Y031955D02*
X005899Y032405D01*
X005674Y032180D01*
X005974Y032180D01*
X006135Y032405D02*
X006435Y032405D01*
X006595Y031555D02*
X006595Y031105D01*
X006445Y031105D02*
X006745Y031105D01*
X006445Y031405D02*
X006595Y031555D01*
X006284Y031480D02*
X006284Y031330D01*
X006209Y031255D01*
X005984Y031255D01*
X005984Y031105D02*
X005984Y031555D01*
X006209Y031555D01*
X006284Y031480D01*
X006134Y031255D02*
X006284Y031105D01*
X006297Y028365D02*
X006297Y027915D01*
X006597Y027915D01*
X006757Y027915D02*
X007057Y027915D01*
X007217Y027915D02*
X007443Y027915D01*
X007518Y027990D01*
X007518Y028290D01*
X007443Y028365D01*
X007217Y028365D01*
X007217Y027915D01*
X006907Y028140D02*
X006757Y028140D01*
X006757Y028365D02*
X006757Y027915D01*
X006757Y028365D02*
X007057Y028365D01*
X006136Y027840D02*
X005836Y027840D01*
X005676Y027915D02*
X005526Y028065D01*
X005601Y028065D02*
X005376Y028065D01*
X005376Y027915D02*
X005376Y028365D01*
X005601Y028365D01*
X005676Y028290D01*
X005676Y028140D01*
X005601Y028065D01*
X005216Y027915D02*
X005216Y028365D01*
X004915Y028365D02*
X004915Y027915D01*
X005066Y028065D01*
X005216Y027915D01*
X004755Y028140D02*
X004680Y028065D01*
X004455Y028065D01*
X004455Y027915D02*
X004455Y028365D01*
X004680Y028365D01*
X004755Y028290D01*
X004755Y028140D01*
X007005Y024728D02*
X007005Y024428D01*
X007005Y024578D02*
X006555Y024578D01*
X006705Y024428D01*
X007005Y024268D02*
X007005Y023967D01*
X006555Y023967D01*
X006705Y023807D02*
X007005Y023807D01*
X006780Y023807D02*
X006780Y023507D01*
X006705Y023507D02*
X007005Y023507D01*
X006705Y023507D02*
X006555Y023657D01*
X006705Y023807D01*
X006555Y023347D02*
X006555Y023047D01*
X006555Y023197D02*
X007005Y023197D01*
X006930Y022886D02*
X007005Y022811D01*
X007005Y022661D01*
X006930Y022586D01*
X006780Y022661D02*
X006780Y022811D01*
X006855Y022886D01*
X006930Y022886D01*
X006780Y022661D02*
X006705Y022586D01*
X006630Y022586D01*
X006555Y022661D01*
X006555Y022811D01*
X006630Y022886D01*
X006630Y022426D02*
X006555Y022426D01*
X006630Y022426D02*
X006780Y022276D01*
X007005Y022276D01*
X006780Y022276D02*
X006630Y022126D01*
X006555Y022126D01*
X006630Y021966D02*
X006780Y021966D01*
X006855Y021891D01*
X006855Y021665D01*
X007005Y021665D02*
X006555Y021665D01*
X006555Y021891D01*
X006630Y021966D01*
X006855Y021816D02*
X007005Y021966D01*
X006930Y021505D02*
X007005Y021430D01*
X007005Y021280D01*
X006930Y021205D01*
X006630Y021205D01*
X006555Y021280D01*
X006555Y021430D01*
X006630Y021505D01*
X003905Y018435D02*
X003680Y018210D01*
X003755Y018135D02*
X003455Y018435D01*
X003455Y018135D02*
X003905Y018135D01*
X003830Y017974D02*
X003905Y017899D01*
X003905Y017749D01*
X003830Y017674D01*
X003530Y017974D01*
X003830Y017974D01*
X003830Y017674D02*
X003530Y017674D01*
X003455Y017749D01*
X003455Y017899D01*
X003530Y017974D01*
X003905Y017514D02*
X003905Y017214D01*
X003905Y017364D02*
X003455Y017364D01*
X003605Y017214D01*
X004505Y016105D02*
X004730Y016105D01*
X004805Y016030D01*
X004805Y015880D01*
X004730Y015805D01*
X004505Y015805D01*
X004505Y015655D02*
X004505Y016105D01*
X004655Y015805D02*
X004805Y015655D01*
X004965Y015655D02*
X004965Y016105D01*
X005266Y016105D01*
X005426Y016030D02*
X005426Y015955D01*
X005501Y015880D01*
X005651Y015880D01*
X005726Y015805D01*
X005726Y015730D01*
X005651Y015655D01*
X005501Y015655D01*
X005426Y015730D01*
X005266Y015655D02*
X004965Y015655D01*
X004965Y015880D02*
X005116Y015880D01*
X005426Y016030D02*
X005501Y016105D01*
X005651Y016105D01*
X005726Y016030D01*
X005886Y016105D02*
X005886Y015655D01*
X006186Y015655D01*
X006036Y015880D02*
X005886Y015880D01*
X005886Y016105D02*
X006186Y016105D01*
X006347Y016105D02*
X006647Y016105D01*
X006497Y016105D02*
X006497Y015655D01*
X008005Y015655D02*
X008230Y015655D01*
X008305Y015730D01*
X008305Y015805D01*
X008230Y015880D01*
X008005Y015880D01*
X008005Y015655D02*
X008005Y016105D01*
X008230Y016105D01*
X008305Y016030D01*
X008305Y015955D01*
X008230Y015880D01*
X008465Y016105D02*
X008766Y016105D01*
X008616Y016105D02*
X008616Y015655D01*
X008926Y015655D02*
X008926Y016105D01*
X008926Y015655D02*
X009226Y015655D01*
X009386Y015655D02*
X009611Y015655D01*
X009686Y015730D01*
X009686Y016030D01*
X009611Y016105D01*
X009386Y016105D01*
X009386Y015655D01*
X009847Y015655D02*
X009847Y016105D01*
X010072Y016105D01*
X010147Y016030D01*
X010147Y015880D01*
X010072Y015805D01*
X009847Y015805D01*
X009997Y015805D02*
X010147Y015655D01*
X010170Y013375D02*
X010470Y013375D01*
X010320Y013375D02*
X010320Y012925D01*
X010013Y012925D02*
X009863Y012925D01*
X009938Y012925D02*
X009938Y013375D01*
X009863Y013375D02*
X010013Y013375D01*
X009703Y013375D02*
X009403Y013075D01*
X009478Y013150D02*
X009703Y012925D01*
X009403Y012925D02*
X009403Y013375D01*
X009243Y013300D02*
X009168Y013375D01*
X009017Y013375D01*
X008942Y013300D01*
X008942Y013000D01*
X009017Y012925D01*
X009168Y012925D01*
X009243Y013000D01*
X008786Y012925D02*
X008635Y012925D01*
X008710Y012925D02*
X008710Y013375D01*
X008635Y013375D02*
X008786Y013375D01*
X008475Y013300D02*
X008475Y013150D01*
X008400Y013075D01*
X008175Y013075D01*
X008175Y012925D02*
X008175Y013375D01*
X008400Y013375D01*
X008475Y013300D01*
X010630Y013300D02*
X010705Y013375D01*
X010856Y013375D01*
X010931Y013300D01*
X010931Y013225D01*
X010856Y013150D01*
X010931Y013075D01*
X010931Y013000D01*
X010856Y012925D01*
X010705Y012925D01*
X010630Y013000D01*
X010781Y013150D02*
X010856Y013150D01*
X012805Y015984D02*
X012805Y016209D01*
X012880Y016284D01*
X013030Y016284D01*
X013105Y016209D01*
X013105Y015984D01*
X013255Y015984D02*
X012805Y015984D01*
X013105Y016134D02*
X013255Y016284D01*
X013180Y016445D02*
X013255Y016520D01*
X013255Y016670D01*
X013180Y016745D01*
X013105Y016745D01*
X013030Y016670D01*
X013030Y016595D01*
X013030Y016670D02*
X012955Y016745D01*
X012880Y016745D01*
X012805Y016670D01*
X012805Y016520D01*
X012880Y016445D01*
X012405Y017214D02*
X012405Y017514D01*
X012405Y017364D02*
X011955Y017364D01*
X012105Y017214D01*
X012030Y017674D02*
X011955Y017749D01*
X011955Y017899D01*
X012030Y017974D01*
X012330Y017674D01*
X012405Y017749D01*
X012405Y017899D01*
X012330Y017974D01*
X012030Y017974D01*
X011955Y018135D02*
X012405Y018135D01*
X012255Y018135D02*
X011955Y018435D01*
X012180Y018210D02*
X012405Y018435D01*
X012330Y017674D02*
X012030Y017674D01*
X010480Y021555D02*
X010555Y021630D01*
X010555Y021780D01*
X010480Y021855D01*
X010480Y022015D02*
X010555Y022090D01*
X010555Y022241D01*
X010480Y022316D01*
X010405Y022316D01*
X010330Y022241D01*
X010330Y022166D01*
X010330Y022241D02*
X010255Y022316D01*
X010180Y022316D01*
X010105Y022241D01*
X010105Y022090D01*
X010180Y022015D01*
X010180Y021855D02*
X010105Y021780D01*
X010105Y021630D01*
X010180Y021555D01*
X010480Y021555D01*
X010480Y024055D02*
X010555Y024130D01*
X010555Y024280D01*
X010480Y024355D01*
X010555Y024515D02*
X010255Y024816D01*
X010180Y024816D01*
X010105Y024741D01*
X010105Y024590D01*
X010180Y024515D01*
X010180Y024355D02*
X010105Y024280D01*
X010105Y024130D01*
X010180Y024055D01*
X010480Y024055D01*
X010555Y024515D02*
X010555Y024816D01*
X010180Y029434D02*
X009880Y029434D01*
X009805Y029509D01*
X009805Y029659D01*
X009880Y029734D01*
X009955Y029895D02*
X009805Y030045D01*
X010255Y030045D01*
X010255Y029895D02*
X010255Y030195D01*
X010180Y029734D02*
X010255Y029659D01*
X010255Y029509D01*
X010180Y029434D01*
X013605Y034005D02*
X013605Y034230D01*
X013680Y034305D01*
X013830Y034305D01*
X013905Y034230D01*
X013905Y034005D01*
X014055Y034005D02*
X013605Y034005D01*
X013905Y034155D02*
X014055Y034305D01*
X013830Y034465D02*
X013830Y034766D01*
X014055Y034691D02*
X013605Y034691D01*
X013830Y034465D01*
X014455Y034465D02*
X014905Y034465D01*
X014905Y034315D02*
X014905Y034615D01*
X014830Y034775D02*
X014530Y035076D01*
X014830Y035076D01*
X014905Y035001D01*
X014905Y034850D01*
X014830Y034775D01*
X014530Y034775D01*
X014455Y034850D01*
X014455Y035001D01*
X014530Y035076D01*
X014455Y035236D02*
X014905Y035236D01*
X014755Y035236D02*
X014455Y035536D01*
X014680Y035311D02*
X014905Y035536D01*
X014455Y034465D02*
X014605Y034315D01*
X018455Y035403D02*
X018455Y035628D01*
X018530Y035703D01*
X018680Y035703D01*
X018755Y035628D01*
X018755Y035403D01*
X018905Y035403D02*
X018455Y035403D01*
X018530Y035863D02*
X018830Y035863D01*
X018905Y035938D01*
X018905Y036089D01*
X018830Y036164D01*
X018530Y036164D01*
X018455Y036089D01*
X018455Y035938D01*
X018530Y035863D01*
X018455Y036324D02*
X018905Y036324D01*
X018755Y036474D01*
X018905Y036624D01*
X018455Y036624D01*
X018455Y036784D02*
X018905Y036784D01*
X018905Y037084D01*
X018905Y037245D02*
X018455Y037245D01*
X018455Y037470D01*
X018530Y037545D01*
X018680Y037545D01*
X018755Y037470D01*
X018755Y037245D01*
X018755Y037395D02*
X018905Y037545D01*
X018455Y037084D02*
X018455Y036784D01*
X018680Y036784D02*
X018680Y036934D01*
X020075Y032075D02*
X020375Y032075D01*
X020150Y032075D02*
X020150Y031775D01*
X020075Y031775D02*
X019925Y031925D01*
X020075Y032075D01*
X020075Y031775D02*
X020375Y031775D01*
X020375Y031464D02*
X019925Y031464D01*
X019925Y031314D02*
X019925Y031614D01*
X020000Y031154D02*
X020150Y031154D01*
X020225Y031079D01*
X020225Y030854D01*
X020225Y031004D02*
X020375Y031154D01*
X020375Y030854D02*
X019925Y030854D01*
X019925Y031079D01*
X020000Y031154D01*
X020000Y030694D02*
X019925Y030619D01*
X019925Y030468D01*
X020000Y030393D01*
X020300Y030393D01*
X020375Y030468D01*
X020375Y030619D01*
X020300Y030694D01*
X020000Y030694D01*
X020000Y030233D02*
X020150Y030233D01*
X020225Y030158D01*
X020225Y029933D01*
X020375Y029933D02*
X019925Y029933D01*
X019925Y030158D01*
X020000Y030233D01*
X019255Y030159D02*
X019255Y030009D01*
X019180Y029934D01*
X018880Y029934D01*
X018805Y030009D01*
X018805Y030159D01*
X018880Y030234D01*
X019030Y030395D02*
X019030Y030695D01*
X019255Y030620D02*
X018805Y030620D01*
X019030Y030395D01*
X019180Y030234D02*
X019255Y030159D01*
X018316Y023755D02*
X018015Y023755D01*
X018015Y023530D01*
X018166Y023605D01*
X018241Y023605D01*
X018316Y023530D01*
X018316Y023380D01*
X018241Y023305D01*
X018090Y023305D01*
X018015Y023380D01*
X017855Y023380D02*
X017780Y023305D01*
X017630Y023305D01*
X017555Y023380D01*
X017555Y023680D01*
X017630Y023755D01*
X017780Y023755D01*
X017855Y023680D01*
X019985Y022242D02*
X019985Y022017D01*
X020435Y022017D01*
X020435Y022242D01*
X020360Y022317D01*
X020285Y022317D01*
X020210Y022242D01*
X020210Y022017D01*
X020210Y022242D02*
X020135Y022317D01*
X020060Y022317D01*
X019985Y022242D01*
X019985Y021856D02*
X019985Y021556D01*
X019985Y021706D02*
X020435Y021706D01*
X020435Y021396D02*
X020285Y021246D01*
X020285Y021321D02*
X020285Y021096D01*
X020435Y021096D02*
X019985Y021096D01*
X019985Y021321D01*
X020060Y021396D01*
X020210Y021396D01*
X020285Y021321D01*
X020360Y020936D02*
X020060Y020936D01*
X019985Y020861D01*
X019985Y020710D01*
X020060Y020635D01*
X020360Y020635D01*
X020435Y020710D01*
X020435Y020861D01*
X020360Y020936D01*
X020210Y020475D02*
X020285Y020400D01*
X020285Y020175D01*
X020435Y020175D02*
X019985Y020175D01*
X019985Y020400D01*
X020060Y020475D01*
X020210Y020475D01*
X018715Y014310D02*
X018007Y014310D01*
X018715Y013326D02*
X018715Y012499D01*
X018715Y010688D02*
X015645Y010688D01*
X015645Y012263D02*
X015645Y013326D01*
X015645Y014310D02*
X016353Y014310D01*
X003755Y014284D02*
X003605Y014134D01*
X003605Y014209D02*
X003605Y013984D01*
X003755Y013984D02*
X003305Y013984D01*
X003305Y014209D01*
X003380Y014284D01*
X003530Y014284D01*
X003605Y014209D01*
X003755Y014445D02*
X003455Y014745D01*
X003380Y014745D01*
X003305Y014670D01*
X003305Y014520D01*
X003380Y014445D01*
X003755Y014445D02*
X003755Y014745D01*
D16*
X003680Y016260D03*
X003680Y019100D03*
X012180Y019100D03*
X012180Y016260D03*
X014680Y033760D03*
X014680Y036600D03*
D17*
X017880Y030280D02*
X018180Y030280D01*
X018480Y030280D01*
X018480Y030080D02*
X018180Y030080D01*
X017880Y030080D01*
X011480Y024780D02*
X011180Y024780D01*
X010880Y024780D01*
X010880Y024580D02*
X011180Y024580D01*
X011480Y024580D01*
X011480Y022280D02*
X011180Y022280D01*
X010880Y022280D01*
X010880Y022080D02*
X011180Y022080D01*
X011480Y022080D01*
X018080Y022380D02*
X018080Y022680D01*
X018080Y022980D01*
X018280Y022980D02*
X018280Y022680D01*
X018280Y022380D01*
X009480Y029580D02*
X009180Y029580D01*
X008880Y029580D01*
X008880Y029780D02*
X009180Y029780D01*
X009480Y029780D01*
D18*
X009080Y024330D02*
X009080Y022030D01*
X009078Y021971D01*
X009072Y021913D01*
X009063Y021854D01*
X009049Y021797D01*
X009032Y021741D01*
X009011Y021686D01*
X008987Y021632D01*
X008959Y021580D01*
X008928Y021530D01*
X008894Y021482D01*
X008857Y021437D01*
X008816Y021394D01*
X008773Y021353D01*
X008728Y021316D01*
X008680Y021282D01*
X008630Y021251D01*
X008578Y021223D01*
X008524Y021199D01*
X008469Y021178D01*
X008413Y021161D01*
X008356Y021147D01*
X008297Y021138D01*
X008239Y021132D01*
X008180Y021130D01*
X008121Y021132D01*
X008063Y021138D01*
X008004Y021147D01*
X007947Y021161D01*
X007891Y021178D01*
X007836Y021199D01*
X007782Y021223D01*
X007730Y021251D01*
X007680Y021282D01*
X007632Y021316D01*
X007587Y021353D01*
X007544Y021394D01*
X007503Y021437D01*
X007466Y021482D01*
X007432Y021530D01*
X007401Y021580D01*
X007373Y021632D01*
X007349Y021686D01*
X007328Y021741D01*
X007311Y021797D01*
X007297Y021854D01*
X007288Y021913D01*
X007282Y021971D01*
X007280Y022030D01*
X007280Y024330D01*
X007282Y024389D01*
X007288Y024447D01*
X007297Y024506D01*
X007311Y024563D01*
X007328Y024619D01*
X007349Y024674D01*
X007373Y024728D01*
X007401Y024780D01*
X007432Y024830D01*
X007466Y024878D01*
X007503Y024923D01*
X007544Y024966D01*
X007587Y025007D01*
X007632Y025044D01*
X007680Y025078D01*
X007730Y025109D01*
X007782Y025137D01*
X007836Y025161D01*
X007891Y025182D01*
X007947Y025199D01*
X008004Y025213D01*
X008063Y025222D01*
X008121Y025228D01*
X008180Y025230D01*
X008239Y025228D01*
X008297Y025222D01*
X008356Y025213D01*
X008413Y025199D01*
X008469Y025182D01*
X008524Y025161D01*
X008578Y025137D01*
X008630Y025109D01*
X008680Y025078D01*
X008728Y025044D01*
X008773Y025007D01*
X008816Y024966D01*
X008857Y024923D01*
X008894Y024878D01*
X008928Y024830D01*
X008959Y024780D01*
X008987Y024728D01*
X009011Y024674D01*
X009032Y024619D01*
X009049Y024563D01*
X009063Y024506D01*
X009072Y024447D01*
X009078Y024389D01*
X009080Y024330D01*
D19*
X006930Y028680D02*
X005430Y028680D01*
X005235Y034089D02*
X004408Y034089D01*
X004408Y034523D01*
X004408Y036373D02*
X004408Y038381D01*
X007952Y038381D01*
X007952Y034089D01*
X007204Y034089D01*
X020680Y033430D02*
X020680Y032930D01*
X020930Y032680D01*
X020680Y032430D01*
X020680Y031930D01*
X020930Y031680D01*
X020680Y031430D01*
X020680Y030930D01*
X020930Y030680D01*
X020680Y030430D01*
X020680Y029930D01*
X020930Y029680D01*
X020680Y029430D01*
X020680Y028930D01*
X020930Y028680D01*
X021430Y028680D01*
X021680Y028930D01*
X021680Y029430D01*
X021430Y029680D01*
X021680Y029930D01*
X021680Y030430D01*
X021430Y030680D01*
X021680Y030930D01*
X021680Y031430D01*
X021430Y031680D01*
X021680Y031930D01*
X021680Y032430D01*
X021430Y032680D01*
X021680Y032930D01*
X021680Y033430D01*
X021430Y033680D01*
X020930Y033680D01*
X020680Y033430D01*
X020930Y028180D02*
X021430Y028180D01*
X021680Y027930D01*
X021680Y027430D01*
X021430Y027180D01*
X021680Y026930D01*
X021680Y026430D01*
X021430Y026180D01*
X021680Y025930D01*
X021680Y025430D01*
X021430Y025180D01*
X021680Y024930D01*
X021680Y024430D01*
X021430Y024180D01*
X021680Y023930D01*
X021680Y023430D01*
X021430Y023180D01*
X021680Y022930D01*
X021680Y022430D01*
X021430Y022180D01*
X021680Y021930D01*
X021680Y021430D01*
X021430Y021180D01*
X021680Y020930D01*
X021680Y020430D01*
X021430Y020180D01*
X021680Y019930D01*
X021680Y019430D01*
X021430Y019180D01*
X021680Y018930D01*
X021680Y018430D01*
X021430Y018180D01*
X021680Y017930D01*
X021680Y017430D01*
X021430Y017180D01*
X021680Y016930D01*
X021680Y016430D01*
X021430Y016180D01*
X021680Y015930D01*
X021680Y015430D01*
X021430Y015180D01*
X021680Y014930D01*
X021680Y014430D01*
X021430Y014180D01*
X021680Y013930D01*
X021680Y013430D01*
X021430Y013180D01*
X021680Y012930D01*
X021680Y012430D01*
X021430Y012180D01*
X020930Y012180D01*
X020680Y012430D01*
X020680Y012930D01*
X020930Y013180D01*
X020680Y013430D01*
X020680Y013930D01*
X020930Y014180D01*
X020680Y014430D01*
X020680Y014930D01*
X020930Y015180D01*
X020680Y015430D01*
X020680Y015930D01*
X020930Y016180D01*
X020680Y016430D01*
X020680Y016930D01*
X020930Y017180D01*
X020680Y017430D01*
X020680Y017930D01*
X020930Y018180D01*
X020680Y018430D01*
X020680Y018930D01*
X020930Y019180D01*
X020680Y019430D01*
X020680Y019930D01*
X020930Y020180D01*
X020680Y020430D01*
X020680Y020930D01*
X020930Y021180D01*
X020680Y021430D01*
X020680Y021930D01*
X020930Y022180D01*
X020680Y022430D01*
X020680Y022930D01*
X020930Y023180D01*
X020680Y023430D01*
X020680Y023930D01*
X020930Y024180D01*
X020680Y024430D01*
X020680Y024930D01*
X020930Y025180D01*
X020680Y025430D01*
X020680Y025930D01*
X020930Y026180D01*
X020680Y026430D01*
X020680Y026930D01*
X020930Y027180D01*
X020680Y027430D01*
X020680Y027930D01*
X020930Y028180D01*
X021430Y028180D01*
X021430Y012180D02*
X020930Y012180D01*
D20*
X006960Y028648D02*
X006906Y028720D01*
X006907Y028719D02*
X006960Y028762D01*
X007011Y028807D01*
X007059Y028856D01*
X007104Y028907D01*
X007147Y028961D01*
X007186Y029017D01*
X007222Y029075D01*
X007255Y029135D01*
X007284Y029196D01*
X007309Y029260D01*
X007331Y029324D01*
X007350Y029390D01*
X007364Y029457D01*
X007375Y029524D01*
X007382Y029592D01*
X007385Y029660D01*
X007384Y029729D01*
X007379Y029797D01*
X007371Y029865D01*
X007358Y029932D01*
X007342Y029998D01*
X007322Y030063D01*
X007299Y030128D01*
X007272Y030190D01*
X007241Y030251D01*
X007207Y030310D01*
X007170Y030368D01*
X007129Y030423D01*
X007085Y030475D01*
X007039Y030525D01*
X006990Y030572D01*
X006938Y030617D01*
X006884Y030658D01*
X006827Y030697D01*
X006768Y030732D01*
X006708Y030763D01*
X006646Y030791D01*
X006582Y030816D01*
X006517Y030837D01*
X006451Y030854D01*
X006384Y030868D01*
X006316Y030877D01*
X006248Y030883D01*
X006180Y030885D01*
X006112Y030883D01*
X006044Y030877D01*
X005976Y030868D01*
X005909Y030854D01*
X005843Y030837D01*
X005778Y030816D01*
X005714Y030791D01*
X005652Y030763D01*
X005592Y030732D01*
X005533Y030697D01*
X005476Y030658D01*
X005422Y030617D01*
X005370Y030572D01*
X005321Y030525D01*
X005275Y030475D01*
X005231Y030423D01*
X005190Y030368D01*
X005153Y030310D01*
X005119Y030251D01*
X005088Y030190D01*
X005061Y030128D01*
X005038Y030063D01*
X005018Y029998D01*
X005002Y029932D01*
X004989Y029865D01*
X004981Y029797D01*
X004976Y029729D01*
X004975Y029660D01*
X004978Y029592D01*
X004985Y029524D01*
X004996Y029457D01*
X005010Y029390D01*
X005029Y029324D01*
X005051Y029260D01*
X005076Y029196D01*
X005105Y029135D01*
X005138Y029075D01*
X005174Y029017D01*
X005213Y028961D01*
X005256Y028907D01*
X005301Y028856D01*
X005349Y028807D01*
X005400Y028762D01*
X005453Y028719D01*
X005400Y028648D01*
X005399Y028647D01*
X005344Y028691D01*
X005291Y028739D01*
X005240Y028789D01*
X005193Y028842D01*
X005149Y028897D01*
X005107Y028955D01*
X005069Y029015D01*
X005034Y029076D01*
X005003Y029140D01*
X004975Y029205D01*
X004951Y029272D01*
X004930Y029340D01*
X004914Y029409D01*
X004901Y029479D01*
X004892Y029549D01*
X004886Y029620D01*
X004885Y029691D01*
X004888Y029762D01*
X004894Y029833D01*
X004904Y029903D01*
X004918Y029972D01*
X004936Y030041D01*
X004958Y030109D01*
X004983Y030175D01*
X005012Y030240D01*
X005045Y030303D01*
X005081Y030364D01*
X005120Y030423D01*
X005162Y030480D01*
X005207Y030535D01*
X005256Y030587D01*
X005307Y030636D01*
X005360Y030683D01*
X005417Y030726D01*
X005475Y030766D01*
X005536Y030803D01*
X005598Y030837D01*
X005662Y030867D01*
X005728Y030894D01*
X005795Y030917D01*
X005864Y030936D01*
X005933Y030951D01*
X006003Y030963D01*
X006074Y030971D01*
X006145Y030975D01*
X006215Y030975D01*
X006286Y030971D01*
X006357Y030963D01*
X006427Y030951D01*
X006496Y030936D01*
X006565Y030917D01*
X006632Y030894D01*
X006698Y030867D01*
X006762Y030837D01*
X006824Y030803D01*
X006885Y030766D01*
X006943Y030726D01*
X007000Y030683D01*
X007053Y030636D01*
X007104Y030587D01*
X007153Y030535D01*
X007198Y030480D01*
X007240Y030423D01*
X007279Y030364D01*
X007315Y030303D01*
X007348Y030240D01*
X007377Y030175D01*
X007402Y030109D01*
X007424Y030041D01*
X007442Y029972D01*
X007456Y029903D01*
X007466Y029833D01*
X007472Y029762D01*
X007475Y029691D01*
X007474Y029620D01*
X007468Y029549D01*
X007459Y029479D01*
X007446Y029409D01*
X007430Y029340D01*
X007409Y029272D01*
X007385Y029205D01*
X007357Y029140D01*
X007326Y029076D01*
X007291Y029015D01*
X007253Y028955D01*
X007211Y028897D01*
X007167Y028842D01*
X007120Y028789D01*
X007069Y028739D01*
X007016Y028691D01*
X006961Y028647D01*
X006956Y028654D01*
X007011Y028699D01*
X007064Y028746D01*
X007115Y028797D01*
X007162Y028850D01*
X007207Y028906D01*
X007248Y028964D01*
X007286Y029024D01*
X007321Y029086D01*
X007352Y029150D01*
X007379Y029216D01*
X007403Y029283D01*
X007423Y029352D01*
X007440Y029421D01*
X007452Y029491D01*
X007461Y029562D01*
X007465Y029633D01*
X007466Y029704D01*
X007462Y029775D01*
X007455Y029846D01*
X007444Y029917D01*
X007429Y029986D01*
X007410Y030055D01*
X007387Y030123D01*
X007361Y030189D01*
X007331Y030254D01*
X007297Y030316D01*
X007261Y030377D01*
X007220Y030436D01*
X007177Y030493D01*
X007130Y030547D01*
X007081Y030598D01*
X007028Y030646D01*
X006974Y030692D01*
X006916Y030734D01*
X006857Y030773D01*
X006795Y030809D01*
X006732Y030842D01*
X006667Y030870D01*
X006600Y030896D01*
X006532Y030917D01*
X006463Y030935D01*
X006393Y030948D01*
X006322Y030958D01*
X006251Y030964D01*
X006180Y030966D01*
X006109Y030964D01*
X006038Y030958D01*
X005967Y030948D01*
X005897Y030935D01*
X005828Y030917D01*
X005760Y030896D01*
X005693Y030870D01*
X005628Y030842D01*
X005565Y030809D01*
X005503Y030773D01*
X005444Y030734D01*
X005386Y030692D01*
X005332Y030646D01*
X005279Y030598D01*
X005230Y030547D01*
X005183Y030493D01*
X005140Y030436D01*
X005099Y030377D01*
X005063Y030316D01*
X005029Y030254D01*
X004999Y030189D01*
X004973Y030123D01*
X004950Y030055D01*
X004931Y029986D01*
X004916Y029917D01*
X004905Y029846D01*
X004898Y029775D01*
X004894Y029704D01*
X004895Y029633D01*
X004899Y029562D01*
X004908Y029491D01*
X004920Y029421D01*
X004937Y029352D01*
X004957Y029283D01*
X004981Y029216D01*
X005008Y029150D01*
X005039Y029086D01*
X005074Y029024D01*
X005112Y028964D01*
X005153Y028906D01*
X005198Y028850D01*
X005245Y028797D01*
X005296Y028746D01*
X005349Y028699D01*
X005404Y028654D01*
X005410Y028661D01*
X005355Y028706D01*
X005302Y028753D01*
X005252Y028803D01*
X005205Y028856D01*
X005161Y028911D01*
X005119Y028969D01*
X005082Y029028D01*
X005047Y029090D01*
X005016Y029154D01*
X004989Y029219D01*
X004965Y029286D01*
X004945Y029354D01*
X004929Y029423D01*
X004917Y029492D01*
X004908Y029563D01*
X004904Y029633D01*
X004903Y029704D01*
X004907Y029775D01*
X004914Y029845D01*
X004925Y029915D01*
X004940Y029984D01*
X004959Y030052D01*
X004981Y030120D01*
X005007Y030185D01*
X005037Y030250D01*
X005070Y030312D01*
X005107Y030372D01*
X005147Y030431D01*
X005190Y030487D01*
X005236Y030541D01*
X005286Y030591D01*
X005337Y030640D01*
X005392Y030685D01*
X005449Y030727D01*
X005508Y030766D01*
X005569Y030801D01*
X005632Y030834D01*
X005697Y030862D01*
X005763Y030887D01*
X005831Y030908D01*
X005899Y030926D01*
X005969Y030939D01*
X006039Y030949D01*
X006109Y030955D01*
X006180Y030957D01*
X006251Y030955D01*
X006321Y030949D01*
X006391Y030939D01*
X006461Y030926D01*
X006529Y030908D01*
X006597Y030887D01*
X006663Y030862D01*
X006728Y030834D01*
X006791Y030801D01*
X006852Y030766D01*
X006911Y030727D01*
X006968Y030685D01*
X007023Y030640D01*
X007074Y030591D01*
X007124Y030541D01*
X007170Y030487D01*
X007213Y030431D01*
X007253Y030372D01*
X007290Y030312D01*
X007323Y030250D01*
X007353Y030185D01*
X007379Y030120D01*
X007401Y030052D01*
X007420Y029984D01*
X007435Y029915D01*
X007446Y029845D01*
X007453Y029775D01*
X007457Y029704D01*
X007456Y029633D01*
X007452Y029563D01*
X007443Y029492D01*
X007431Y029423D01*
X007415Y029354D01*
X007395Y029286D01*
X007371Y029219D01*
X007344Y029154D01*
X007313Y029090D01*
X007278Y029028D01*
X007241Y028969D01*
X007199Y028911D01*
X007155Y028856D01*
X007108Y028803D01*
X007058Y028753D01*
X007005Y028706D01*
X006950Y028661D01*
X006945Y028669D01*
X007000Y028713D01*
X007053Y028761D01*
X007103Y028811D01*
X007151Y028864D01*
X007195Y028920D01*
X007236Y028978D01*
X007273Y029038D01*
X007308Y029100D01*
X007338Y029164D01*
X007365Y029230D01*
X007389Y029297D01*
X007408Y029365D01*
X007424Y029435D01*
X007436Y029505D01*
X007444Y029575D01*
X007448Y029646D01*
X007447Y029717D01*
X007443Y029788D01*
X007435Y029859D01*
X007423Y029929D01*
X007407Y029998D01*
X007388Y030066D01*
X007364Y030134D01*
X007337Y030199D01*
X007306Y030263D01*
X007272Y030325D01*
X007234Y030385D01*
X007192Y030443D01*
X007148Y030499D01*
X007101Y030552D01*
X007050Y030602D01*
X006997Y030649D01*
X006942Y030694D01*
X006884Y030735D01*
X006824Y030772D01*
X006761Y030807D01*
X006697Y030838D01*
X006632Y030865D01*
X006565Y030888D01*
X006496Y030908D01*
X006427Y030924D01*
X006357Y030936D01*
X006286Y030944D01*
X006216Y030948D01*
X006144Y030948D01*
X006074Y030944D01*
X006003Y030936D01*
X005933Y030924D01*
X005864Y030908D01*
X005795Y030888D01*
X005728Y030865D01*
X005663Y030838D01*
X005599Y030807D01*
X005536Y030772D01*
X005476Y030735D01*
X005418Y030694D01*
X005363Y030649D01*
X005310Y030602D01*
X005259Y030552D01*
X005212Y030499D01*
X005168Y030443D01*
X005126Y030385D01*
X005088Y030325D01*
X005054Y030263D01*
X005023Y030199D01*
X004996Y030134D01*
X004972Y030066D01*
X004953Y029998D01*
X004937Y029929D01*
X004925Y029859D01*
X004917Y029788D01*
X004913Y029717D01*
X004912Y029646D01*
X004916Y029575D01*
X004924Y029505D01*
X004936Y029435D01*
X004952Y029365D01*
X004971Y029297D01*
X004995Y029230D01*
X005022Y029164D01*
X005052Y029100D01*
X005087Y029038D01*
X005124Y028978D01*
X005165Y028920D01*
X005209Y028864D01*
X005257Y028811D01*
X005307Y028761D01*
X005360Y028713D01*
X005415Y028669D01*
X005421Y028676D01*
X005366Y028720D01*
X005313Y028767D01*
X005263Y028817D01*
X005216Y028870D01*
X005172Y028925D01*
X005132Y028983D01*
X005094Y029042D01*
X005060Y029104D01*
X005030Y029168D01*
X005003Y029233D01*
X004980Y029300D01*
X004960Y029368D01*
X004945Y029436D01*
X004933Y029506D01*
X004925Y029576D01*
X004921Y029647D01*
X004922Y029717D01*
X004926Y029788D01*
X004934Y029858D01*
X004946Y029927D01*
X004961Y029996D01*
X004981Y030064D01*
X005004Y030130D01*
X005031Y030195D01*
X005062Y030259D01*
X005096Y030321D01*
X005134Y030380D01*
X005175Y030438D01*
X005219Y030493D01*
X005266Y030546D01*
X005316Y030595D01*
X005368Y030642D01*
X005424Y030686D01*
X005481Y030727D01*
X005541Y030765D01*
X005603Y030799D01*
X005666Y030829D01*
X005731Y030856D01*
X005798Y030880D01*
X005866Y030899D01*
X005935Y030915D01*
X006004Y030927D01*
X006074Y030935D01*
X006145Y030939D01*
X006215Y030939D01*
X006286Y030935D01*
X006356Y030927D01*
X006425Y030915D01*
X006494Y030899D01*
X006562Y030880D01*
X006629Y030856D01*
X006694Y030829D01*
X006757Y030799D01*
X006819Y030765D01*
X006879Y030727D01*
X006936Y030686D01*
X006992Y030642D01*
X007044Y030595D01*
X007094Y030546D01*
X007141Y030493D01*
X007185Y030438D01*
X007226Y030380D01*
X007264Y030321D01*
X007298Y030259D01*
X007329Y030195D01*
X007356Y030130D01*
X007379Y030064D01*
X007399Y029996D01*
X007414Y029927D01*
X007426Y029858D01*
X007434Y029788D01*
X007438Y029717D01*
X007439Y029647D01*
X007435Y029576D01*
X007427Y029506D01*
X007415Y029436D01*
X007400Y029368D01*
X007380Y029300D01*
X007357Y029233D01*
X007330Y029168D01*
X007300Y029104D01*
X007266Y029042D01*
X007228Y028983D01*
X007188Y028925D01*
X007144Y028870D01*
X007097Y028817D01*
X007047Y028767D01*
X006994Y028720D01*
X006939Y028676D01*
X006934Y028683D01*
X006989Y028727D01*
X007041Y028774D01*
X007090Y028823D01*
X007137Y028876D01*
X007180Y028930D01*
X007221Y028988D01*
X007258Y029047D01*
X007292Y029108D01*
X007322Y029172D01*
X007349Y029236D01*
X007372Y029303D01*
X007391Y029370D01*
X007406Y029438D01*
X007418Y029507D01*
X007426Y029577D01*
X007430Y029647D01*
X007429Y029717D01*
X007425Y029787D01*
X007417Y029856D01*
X007406Y029925D01*
X007390Y029994D01*
X007371Y030061D01*
X007347Y030127D01*
X007320Y030192D01*
X007290Y030255D01*
X007256Y030316D01*
X007219Y030375D01*
X007178Y030433D01*
X007134Y030487D01*
X007088Y030539D01*
X007038Y030589D01*
X006986Y030636D01*
X006931Y030679D01*
X006874Y030720D01*
X006815Y030757D01*
X006753Y030791D01*
X006690Y030821D01*
X006625Y030848D01*
X006559Y030871D01*
X006492Y030890D01*
X006424Y030906D01*
X006355Y030918D01*
X006285Y030926D01*
X006215Y030930D01*
X006145Y030930D01*
X006075Y030926D01*
X006005Y030918D01*
X005936Y030906D01*
X005868Y030890D01*
X005801Y030871D01*
X005735Y030848D01*
X005670Y030821D01*
X005607Y030791D01*
X005545Y030757D01*
X005486Y030720D01*
X005429Y030679D01*
X005374Y030636D01*
X005322Y030589D01*
X005272Y030539D01*
X005226Y030487D01*
X005182Y030433D01*
X005141Y030375D01*
X005104Y030316D01*
X005070Y030255D01*
X005040Y030192D01*
X005013Y030127D01*
X004989Y030061D01*
X004970Y029994D01*
X004954Y029925D01*
X004943Y029856D01*
X004935Y029787D01*
X004931Y029717D01*
X004930Y029647D01*
X004934Y029577D01*
X004942Y029507D01*
X004954Y029438D01*
X004969Y029370D01*
X004988Y029303D01*
X005011Y029236D01*
X005038Y029172D01*
X005068Y029108D01*
X005102Y029047D01*
X005139Y028988D01*
X005180Y028930D01*
X005223Y028876D01*
X005270Y028823D01*
X005319Y028774D01*
X005371Y028727D01*
X005426Y028683D01*
X005431Y028690D01*
X005377Y028734D01*
X005325Y028780D01*
X005276Y028829D01*
X005230Y028881D01*
X005187Y028936D01*
X005147Y028993D01*
X005110Y029052D01*
X005076Y029113D01*
X005046Y029175D01*
X005020Y029240D01*
X004997Y029305D01*
X004978Y029372D01*
X004962Y029440D01*
X004951Y029509D01*
X004943Y029578D01*
X004939Y029647D01*
X004940Y029717D01*
X004944Y029786D01*
X004951Y029855D01*
X004963Y029924D01*
X004979Y029991D01*
X004998Y030058D01*
X005021Y030124D01*
X005048Y030188D01*
X005078Y030251D01*
X005112Y030312D01*
X005149Y030370D01*
X005189Y030427D01*
X005232Y030481D01*
X005279Y030533D01*
X005328Y030582D01*
X005380Y030629D01*
X005434Y030672D01*
X005491Y030712D01*
X005550Y030749D01*
X005611Y030783D01*
X005674Y030813D01*
X005738Y030840D01*
X005803Y030863D01*
X005870Y030882D01*
X005938Y030897D01*
X006007Y030909D01*
X006076Y030917D01*
X006145Y030921D01*
X006215Y030921D01*
X006284Y030917D01*
X006353Y030909D01*
X006422Y030897D01*
X006490Y030882D01*
X006557Y030863D01*
X006622Y030840D01*
X006686Y030813D01*
X006749Y030783D01*
X006810Y030749D01*
X006869Y030712D01*
X006926Y030672D01*
X006980Y030629D01*
X007032Y030582D01*
X007081Y030533D01*
X007128Y030481D01*
X007171Y030427D01*
X007211Y030370D01*
X007248Y030312D01*
X007282Y030251D01*
X007312Y030188D01*
X007339Y030124D01*
X007362Y030058D01*
X007381Y029991D01*
X007397Y029924D01*
X007409Y029855D01*
X007416Y029786D01*
X007420Y029717D01*
X007421Y029647D01*
X007417Y029578D01*
X007409Y029509D01*
X007398Y029440D01*
X007382Y029372D01*
X007363Y029305D01*
X007340Y029240D01*
X007314Y029175D01*
X007284Y029113D01*
X007250Y029052D01*
X007213Y028993D01*
X007173Y028936D01*
X007130Y028881D01*
X007084Y028829D01*
X007035Y028780D01*
X006983Y028734D01*
X006929Y028690D01*
X006923Y028697D01*
X006977Y028741D01*
X007028Y028787D01*
X007077Y028836D01*
X007123Y028887D01*
X007166Y028941D01*
X007206Y028998D01*
X007242Y029056D01*
X007276Y029117D01*
X007306Y029179D01*
X007332Y029243D01*
X007354Y029308D01*
X007373Y029374D01*
X007389Y029442D01*
X007400Y029510D01*
X007408Y029578D01*
X007412Y029647D01*
X007411Y029716D01*
X007407Y029785D01*
X007400Y029854D01*
X007388Y029922D01*
X007373Y029989D01*
X007353Y030056D01*
X007330Y030121D01*
X007304Y030184D01*
X007274Y030247D01*
X007241Y030307D01*
X007204Y030365D01*
X007164Y030422D01*
X007121Y030476D01*
X007075Y030527D01*
X007026Y030576D01*
X006974Y030622D01*
X006920Y030665D01*
X006864Y030705D01*
X006805Y030741D01*
X006745Y030775D01*
X006683Y030805D01*
X006619Y030831D01*
X006554Y030854D01*
X006487Y030873D01*
X006420Y030888D01*
X006352Y030900D01*
X006283Y030908D01*
X006215Y030912D01*
X006145Y030912D01*
X006077Y030908D01*
X006008Y030900D01*
X005940Y030888D01*
X005873Y030873D01*
X005806Y030854D01*
X005741Y030831D01*
X005677Y030805D01*
X005615Y030775D01*
X005555Y030741D01*
X005496Y030705D01*
X005440Y030665D01*
X005386Y030622D01*
X005334Y030576D01*
X005285Y030527D01*
X005239Y030476D01*
X005196Y030422D01*
X005156Y030365D01*
X005119Y030307D01*
X005086Y030247D01*
X005056Y030184D01*
X005030Y030121D01*
X005007Y030056D01*
X004987Y029989D01*
X004972Y029922D01*
X004960Y029854D01*
X004953Y029785D01*
X004949Y029716D01*
X004948Y029647D01*
X004952Y029578D01*
X004960Y029510D01*
X004971Y029442D01*
X004987Y029374D01*
X005006Y029308D01*
X005028Y029243D01*
X005054Y029179D01*
X005084Y029117D01*
X005118Y029056D01*
X005154Y028998D01*
X005194Y028941D01*
X005237Y028887D01*
X005283Y028836D01*
X005332Y028787D01*
X005383Y028741D01*
X005437Y028697D01*
X005442Y028705D01*
X005388Y028748D01*
X005337Y028794D01*
X005288Y028844D01*
X005242Y028895D01*
X005199Y028950D01*
X005159Y029007D01*
X005123Y029065D01*
X005089Y029126D01*
X005060Y029189D01*
X005034Y029253D01*
X005012Y029319D01*
X004993Y029386D01*
X004978Y029453D01*
X004967Y029522D01*
X004960Y029591D01*
X004957Y029660D01*
X004958Y029729D01*
X004963Y029799D01*
X004971Y029867D01*
X004984Y029935D01*
X005000Y030003D01*
X005021Y030069D01*
X005044Y030134D01*
X005072Y030198D01*
X005103Y030260D01*
X005138Y030320D01*
X005176Y030378D01*
X005217Y030434D01*
X005261Y030487D01*
X005308Y030538D01*
X005358Y030586D01*
X005411Y030631D01*
X005466Y030673D01*
X005523Y030712D01*
X005583Y030747D01*
X005644Y030779D01*
X005707Y030808D01*
X005772Y030833D01*
X005838Y030854D01*
X005905Y030872D01*
X005973Y030885D01*
X006042Y030895D01*
X006111Y030901D01*
X006180Y030903D01*
X006249Y030901D01*
X006318Y030895D01*
X006387Y030885D01*
X006455Y030872D01*
X006522Y030854D01*
X006588Y030833D01*
X006653Y030808D01*
X006716Y030779D01*
X006777Y030747D01*
X006837Y030712D01*
X006894Y030673D01*
X006949Y030631D01*
X007002Y030586D01*
X007052Y030538D01*
X007099Y030487D01*
X007143Y030434D01*
X007184Y030378D01*
X007222Y030320D01*
X007257Y030260D01*
X007288Y030198D01*
X007316Y030134D01*
X007339Y030069D01*
X007360Y030003D01*
X007376Y029935D01*
X007389Y029867D01*
X007397Y029799D01*
X007402Y029729D01*
X007403Y029660D01*
X007400Y029591D01*
X007393Y029522D01*
X007382Y029453D01*
X007367Y029386D01*
X007348Y029319D01*
X007326Y029253D01*
X007300Y029189D01*
X007271Y029126D01*
X007237Y029065D01*
X007201Y029007D01*
X007161Y028950D01*
X007118Y028895D01*
X007072Y028844D01*
X007023Y028794D01*
X006972Y028748D01*
X006918Y028705D01*
X006912Y028712D01*
X006966Y028755D01*
X007017Y028801D01*
X007066Y028850D01*
X007111Y028901D01*
X007154Y028955D01*
X007193Y029012D01*
X007230Y029070D01*
X007263Y029130D01*
X007292Y029193D01*
X007318Y029256D01*
X007340Y029322D01*
X007358Y029388D01*
X007373Y029455D01*
X007384Y029523D01*
X007391Y029592D01*
X007394Y029660D01*
X007393Y029729D01*
X007388Y029798D01*
X007380Y029866D01*
X007367Y029934D01*
X007351Y030000D01*
X007331Y030066D01*
X007307Y030131D01*
X007280Y030194D01*
X007249Y030255D01*
X007215Y030315D01*
X007177Y030373D01*
X007136Y030428D01*
X007092Y030481D01*
X007045Y030531D01*
X006996Y030579D01*
X006944Y030624D01*
X006889Y030666D01*
X006832Y030704D01*
X006773Y030739D01*
X006712Y030771D01*
X006649Y030800D01*
X006585Y030824D01*
X006519Y030846D01*
X006453Y030863D01*
X006385Y030876D01*
X006317Y030886D01*
X006249Y030892D01*
X006180Y030894D01*
X006111Y030892D01*
X006043Y030886D01*
X005975Y030876D01*
X005907Y030863D01*
X005841Y030846D01*
X005775Y030824D01*
X005711Y030800D01*
X005648Y030771D01*
X005587Y030739D01*
X005528Y030704D01*
X005471Y030666D01*
X005416Y030624D01*
X005364Y030579D01*
X005315Y030531D01*
X005268Y030481D01*
X005224Y030428D01*
X005183Y030373D01*
X005145Y030315D01*
X005111Y030255D01*
X005080Y030194D01*
X005053Y030131D01*
X005029Y030066D01*
X005009Y030000D01*
X004993Y029934D01*
X004980Y029866D01*
X004972Y029798D01*
X004967Y029729D01*
X004966Y029660D01*
X004969Y029592D01*
X004976Y029523D01*
X004987Y029455D01*
X005002Y029388D01*
X005020Y029322D01*
X005042Y029256D01*
X005068Y029193D01*
X005097Y029130D01*
X005130Y029070D01*
X005167Y029012D01*
X005206Y028955D01*
X005249Y028901D01*
X005294Y028850D01*
X005343Y028801D01*
X005394Y028755D01*
X005448Y028712D01*
D21*
X004260Y032180D03*
X007100Y032180D03*
D22*
X009680Y032505D03*
X010680Y032505D03*
X011680Y032505D03*
D23*
X011447Y034715D02*
X011237Y034715D01*
X011132Y034820D01*
X010915Y034820D02*
X010915Y034715D01*
X010810Y034715D01*
X010810Y034820D01*
X010915Y034820D01*
X010585Y034820D02*
X010480Y034715D01*
X010270Y034715D01*
X010165Y034820D01*
X010375Y035030D02*
X010480Y035030D01*
X010585Y034925D01*
X010585Y034820D01*
X010480Y035030D02*
X010585Y035135D01*
X010585Y035240D01*
X010480Y035346D01*
X010270Y035346D01*
X010165Y035240D01*
X011132Y035240D02*
X011237Y035346D01*
X011447Y035346D01*
X011552Y035240D01*
X011552Y035135D01*
X011447Y035030D01*
X011552Y034925D01*
X011552Y034820D01*
X011447Y034715D01*
X011447Y035030D02*
X011342Y035030D01*
M02*
