%
M48
M72
T01C0.0236
T02C0.0276
T03C0.0320
T04C0.0390
T05C0.0400
T06C0.0787
T07C0.1102
T08C0.1260
T09C0.1300
%
T01
X18680Y17680
T02
X17810Y14507
X17495Y13995
X17180Y14507
X16865Y13995
X16550Y14507
T03
X12180Y15680
X12180Y19680
X11180Y21680
X11180Y22680
X11180Y24180
X11180Y25180
X8180Y24130
X8180Y22230
X3680Y19680
X3680Y15680
X6180Y29180
X6180Y30180
X7680Y32180
X9180Y30180
X9180Y29180
X3680Y32180
X14680Y33180
X18180Y30680
X18180Y29680
X17680Y22680
X18680Y22680
X14680Y37180
T04
X13180Y30680
X13180Y29680
X13180Y28680
X13180Y27680
X13180Y26680
X13180Y25680
X13180Y24680
X13180Y23680
X13180Y22680
X13180Y21680
X13180Y20680
X13180Y19680
X13180Y18680
X13180Y17680
X16180Y17680
X16180Y18680
X16180Y19680
X16180Y20680
X16180Y21680
X16180Y22680
X16180Y23680
X16180Y24680
X16180Y25680
X16180Y26680
X16180Y27680
X16180Y28680
X16180Y29680
X16180Y30680
T05
X7180Y12180
X8180Y12180
X9180Y12180
X10180Y12180
X11180Y12180
X12180Y12180
X10070Y16900
X8290Y16900
X6570Y16900
X4790Y16900
X4790Y19460
X6570Y19460
X8290Y19460
X10070Y19460
X21180Y19680
X21180Y18680
X21180Y17680
X21180Y16680
X21180Y15680
X21180Y14680
X21180Y13680
X21180Y12680
X21180Y20680
X21180Y21680
X21180Y22680
X21180Y23680
X21180Y24680
X21180Y25680
X21180Y26680
X21180Y27680
X21180Y29180
X21180Y30180
X21180Y31180
X21180Y32180
X21180Y33180
X20680Y35180
X20680Y36180
X20680Y37180
X20680Y38180
X19680Y38180
X19680Y37180
X19680Y36180
X19680Y35180
X11680Y31680
X10680Y31680
X9680Y31680
T06
X15743Y12479
X18617Y12479
T07
X4290Y35448
X6180Y36786
T08
X6180Y34326
T09
X10680Y37580
M30
