G75*
G70*
%OFA0B0*%
%FSLAX24Y24*%
%IPPOS*%
%LPD*%
%AMOC8*
5,1,8,0,0,1.08239X$1,22.5*
%
%ADD10R,0.0665X0.0665*%
%ADD11C,0.0665*%
%ADD12C,0.0680*%
%ADD13OC8,0.0560*%
%ADD14OC8,0.0710*%
%ADD15C,0.0560*%
%ADD16OC8,0.0680*%
%ADD17OC8,0.0740*%
%ADD18C,0.1580*%
%ADD19C,0.0496*%
%ADD20C,0.1740*%
%ADD21C,0.1582*%
%ADD22C,0.1380*%
%ADD23C,0.0820*%
%ADD24R,0.0456X0.0456*%
D10*
X013180Y030680D03*
D11*
X013180Y029680D03*
X013180Y028680D03*
X013180Y027680D03*
X013180Y026680D03*
X013180Y025680D03*
X013180Y024680D03*
X013180Y023680D03*
X013180Y022680D03*
X013180Y021680D03*
X013180Y020680D03*
X013180Y019680D03*
X013180Y018680D03*
X013180Y017680D03*
X016180Y017680D03*
X016180Y018680D03*
X016180Y019680D03*
X016180Y020680D03*
X016180Y021680D03*
X016180Y022680D03*
X016180Y023680D03*
X016180Y024680D03*
X016180Y025680D03*
X016180Y026680D03*
X016180Y027680D03*
X016180Y028680D03*
X016180Y029680D03*
X016180Y030680D03*
D12*
X011680Y031380D02*
X011680Y031980D01*
X010680Y031980D02*
X010680Y031380D01*
X009680Y031380D02*
X009680Y031980D01*
X010070Y019760D02*
X010070Y019160D01*
X008290Y019160D02*
X008290Y019760D01*
X006570Y019760D02*
X006570Y019160D01*
X004790Y019160D02*
X004790Y019760D01*
X004790Y017200D02*
X004790Y016600D01*
X006570Y016600D02*
X006570Y017200D01*
X008290Y017200D02*
X008290Y016600D01*
X010070Y016600D02*
X010070Y017200D01*
D13*
X012180Y015680D03*
X012180Y019680D03*
X003680Y019680D03*
X003680Y015680D03*
X003680Y032180D03*
X007680Y032180D03*
X014680Y033180D03*
X014680Y037180D03*
D14*
X018180Y030680D03*
X018180Y029680D03*
X011180Y025180D03*
X011180Y024180D03*
X011180Y022680D03*
X011180Y021680D03*
X017680Y022680D03*
X018680Y022680D03*
X009180Y029180D03*
X009180Y030180D03*
D15*
X008180Y024130D03*
X008180Y022230D03*
D16*
X007180Y012180D03*
X008180Y012180D03*
X009180Y012180D03*
X010180Y012180D03*
X011180Y012180D03*
X012180Y012180D03*
D17*
X006180Y029180D03*
X006180Y030180D03*
X019680Y035180D03*
X019680Y036180D03*
X019680Y037180D03*
X019680Y038180D03*
X020680Y038180D03*
X020680Y037180D03*
X020680Y036180D03*
X020680Y035180D03*
D18*
X018617Y012479D03*
X015743Y012479D03*
D19*
X016865Y013579D02*
X016865Y013995D01*
X016550Y014507D02*
X016550Y014922D01*
X017180Y014922D02*
X017180Y014507D01*
X017495Y013995D02*
X017495Y013579D01*
X017810Y014507D02*
X017810Y014922D01*
D20*
X006180Y034326D03*
D21*
X004290Y035448D03*
X006180Y036786D03*
D22*
X010680Y037580D03*
D23*
X021180Y033180D03*
X021180Y032180D03*
X021180Y031180D03*
X021180Y030180D03*
X021180Y029180D03*
X021180Y027680D03*
X021180Y026680D03*
X021180Y025680D03*
X021180Y024680D03*
X021180Y023680D03*
X021180Y022680D03*
X021180Y021680D03*
X021180Y020680D03*
X021180Y019680D03*
X021180Y018680D03*
X021180Y017680D03*
X021180Y016680D03*
X021180Y015680D03*
X021180Y014680D03*
X021180Y013680D03*
X021180Y012680D03*
D24*
X018680Y017680D03*
M02*
